<svg width="13" height="17" viewBox="0 0 13 17" fill="none" xmlns="http://www.w3.org/2000/svg">
<g clip-path="url(#clip0_7_100)">
<path fill-rule="evenodd" clip-rule="evenodd" d="M2.64613 3.87501C2.64613 1.74641 4.3717 0.0208435 6.50029 0.0208435C8.62889 0.0208435 10.3545 1.74641 10.3545 3.87501C10.3545 6.00361 8.62889 7.72918 6.50029 7.72918C4.3717 7.72918 2.64613 6.00361 2.64613 3.87501ZM0.333252 15.7881C0.333252 13.0402 2.5608 10.8127 5.30863 10.8127H7.69121C10.439 10.8127 12.6666 13.0402 12.6666 15.7881C12.6666 16.446 12.1332 16.9793 11.4753 16.9793H1.52454C0.86661 16.9793 0.333252 16.446 0.333252 15.7881Z" fill="black"/>
</g>
<defs>
<clipPath id="clip0_7_100">
<rect width="12.3333" height="16.9585" fill="white" transform="translate(0.333252 0.0208435)"/>
</clipPath>
</defs>
</svg>
