<svg width="100" height="32" viewBox="0 0 100 32" fill="none" xmlns="http://www.w3.org/2000/svg">
<g clip-path="url(#clip0_10_378)">
<path fill-rule="evenodd" clip-rule="evenodd" d="M21.9257 4.86162C20.2943 4.82948 17.5777 4.31501 15.0903 4.16231C12.9316 4.03011 10.9021 4.20205 9.50368 4.81485C8.12256 5.41801 7.11704 6.49132 6.41624 7.83426C5.7078 9.20413 5.34125 10.8863 4.99367 12.2043C3.5358 17.7453 2.58926 23.4225 1.30137 29C0.96744 30.4237 1.85615 31.8538 3.27986 32.1877C4.71241 32.5212 6.13348 31.6239 6.46741 30.2001C7.74887 24.6761 8.68876 19.0437 10.1314 13.5566C10.358 12.6958 10.5575 11.6324 10.9485 10.6845C11.1073 10.2786 11.2383 9.84756 11.6205 9.67959C12.4113 9.34245 13.5562 9.38778 14.7733 9.46534C17.3407 9.62326 20.1459 10.1426 21.8304 10.1723C23.2935 10.2033 24.5069 9.03185 24.5291 7.56916C24.56 6.10607 23.3977 4.89216 21.9257 4.86162Z" fill="black"/>
<path fill-rule="evenodd" clip-rule="evenodd" d="M21.22 16.367C17.2257 16.584 13.15 16.5653 9.14444 16.5348C7.68216 16.5215 6.47771 17.7014 6.46445 19.1637C6.46043 20.6344 7.63106 21.8302 9.10219 21.8431C13.2142 21.8776 17.405 21.8911 21.5053 21.6692C22.9724 21.5937 24.0935 20.3379 24.0092 18.8712C23.934 17.413 22.6783 16.2919 21.22 16.367Z" fill="black"/>
<path fill-rule="evenodd" clip-rule="evenodd" d="M27.6933 10.6759C27.5036 12.1551 27.2059 14.3744 27.0962 14.8843C26.1523 19.2591 25.2081 23.6252 24.2103 27.9848C23.8768 29.4173 24.7739 30.8382 26.1976 31.1721C27.6298 31.4968 29.0513 30.6083 29.3848 29.1757C30.3902 24.7892 31.3425 20.4052 32.2852 16.0039C32.4608 15.1898 33.0069 11.6126 33.1476 10.0294C33.234 9.00672 33.0519 8.31524 32.9811 8.12356C32.7007 7.4099 32.2406 7.03213 31.858 6.80147C31.0841 6.34056 30.2202 6.23812 29.2679 6.72434C29.1035 6.81154 28.1434 7.32464 27.6519 9.18073C27.5157 9.69187 27.539 10.2046 27.6933 10.6759Z" fill="black"/>
<path fill-rule="evenodd" clip-rule="evenodd" d="M39.9461 21.3923C43.6507 19.6736 46.3482 15.8746 46.8465 12.4148C47.1692 10.1589 46.6302 8.04861 45.1852 6.46658C43.8805 5.04648 41.7495 3.96498 38.4448 3.95574C36.7615 3.95252 35.1755 4.52967 33.6368 5.17543C31.8639 5.92927 30.0665 6.92343 28.6846 8.28847C27.6418 9.31919 27.6386 11.0025 28.6694 12.0452C29.7001 13.088 31.3834 13.0912 32.4261 12.0605C33.3246 11.1692 34.5374 10.5648 35.702 10.0689C36.58 9.70122 37.4635 9.26241 38.4384 9.27125C39.9621 9.27286 40.974 9.51035 41.4152 10.2521C41.7897 10.8907 41.6506 11.7298 41.3689 12.5487C40.7573 14.2951 39.2584 16.011 37.3509 16.7266C35.5559 17.3841 33.9305 17.2897 32.0764 17.2322C29.7783 17.1506 29.3708 18.9054 29.2752 19.335C29.1357 19.9703 29.0936 20.9909 30.1187 21.9099C30.2569 22.0277 30.5599 22.2619 31.0204 22.4535C31.364 22.6062 32.0829 22.8306 32.3907 22.9761C33.2048 23.3466 34.0387 23.7603 34.7962 24.2485C37.1871 25.7876 39.3992 27.6804 40.9531 30.099C41.7355 31.3303 43.3819 31.6894 44.6127 30.8981C45.8528 30.1154 46.2119 28.4692 45.4207 27.2384C43.9708 24.9656 42.067 23.0322 39.9461 21.3923Z" fill="black"/>
<path fill-rule="evenodd" clip-rule="evenodd" d="M71.8435 3.14443C69.6583 3.01343 66.3363 2.23422 63.2939 2.15104C60.6506 2.0763 58.2 2.53318 56.4411 3.79134C54.3649 5.27653 52.9992 7.58877 52.1192 10.2509C51.0535 13.5062 50.7309 17.3213 50.1756 20.1105C49.9091 21.4602 49.5195 23.0192 49.6195 24.441C49.7112 25.8719 50.2147 27.2046 51.3551 28.3221C52.8752 29.8033 55.0089 30.5566 57.3754 30.7768C60.1332 31.0323 63.2129 30.5734 65.3836 30.3862C66.8483 30.2576 67.9235 28.9686 67.795 27.5039C67.6668 26.048 66.3774 24.9638 64.9215 25.0919C63.2981 25.2366 61.0989 25.5759 58.9804 25.5482C57.4823 25.5277 55.9982 25.4268 55.0623 24.5214C54.7473 24.2168 54.8955 23.776 54.9478 23.3661C55.0462 22.6086 55.2504 21.8375 55.3871 21.1403C55.8267 18.9234 56.0939 16.0322 56.7597 13.3354C57.2757 11.239 57.9723 9.22302 59.5255 8.11596C60.7523 7.23634 62.6278 7.37265 64.4959 7.54464C67.0846 7.78132 69.7141 8.33494 71.5437 8.43781C73.0003 8.5222 74.2605 7.40194 74.3449 5.94528C74.4289 4.47978 73.309 3.22842 71.8435 3.14443Z" fill="black"/>
<path fill-rule="evenodd" clip-rule="evenodd" d="M68.292 14.0845C64.2491 13.8164 60.1866 14.0897 56.1417 14.1672C54.681 14.1893 53.5136 15.403 53.5361 16.8725C53.567 18.3328 54.7805 19.5002 56.2408 19.4693C60.1354 19.3986 64.0563 19.1229 67.9481 19.3801C69.4052 19.4733 70.6744 18.3613 70.7677 16.9042C70.8605 15.4383 69.7579 14.1773 68.292 14.0845Z" fill="black"/>
<path fill-rule="evenodd" clip-rule="evenodd" d="M79.4602 22.7115C79.4759 22.4716 79.511 22.0714 79.5616 21.821C79.7263 20.9631 79.9633 20.1373 80.0349 19.5671C80.3431 17.3827 80.6349 14.6411 81.2975 12.0685C81.8476 9.94399 82.6058 7.91635 84.0814 6.66221C84.4651 6.33471 85.0092 6.22138 85.6075 6.13217C86.5659 5.97345 87.6465 5.96865 88.7383 6.01647C91.4447 6.11492 94.2062 6.44992 95.9325 6.22972C97.3859 6.04849 98.415 4.71722 98.2338 3.26377C98.0437 1.81072 96.7125 0.781616 95.259 0.962845C93.3921 1.20716 90.1597 0.645418 87.2914 0.687209C84.6087 0.720562 82.19 1.30009 80.6461 2.61048C78.8037 4.17363 77.533 6.42833 76.6743 8.97437C75.5909 12.2305 75.1848 15.9607 74.7837 18.8315C74.6282 19.8927 74.0328 21.7978 74.1441 23.2722C74.2385 24.5701 74.7311 25.6638 75.6172 26.4474C77.2137 27.8542 79.3442 28.5371 81.6737 28.7235C84.421 28.9441 87.4552 28.4606 89.6954 28.2436C91.1597 28.1062 92.2259 26.8088 92.0884 25.3445C91.9514 23.889 90.6536 22.814 89.1985 22.9599C87.5048 23.1166 85.3155 23.4819 83.1978 23.4718C81.8248 23.4722 80.4652 23.3834 79.4602 22.7115Z" fill="black"/>
<path fill-rule="evenodd" clip-rule="evenodd" d="M94.1888 13.1467C89.7553 13.0559 85.383 12.9447 80.9636 13.1633C79.4965 13.2388 78.3661 14.4862 78.4417 15.9533C78.5168 17.4115 79.7639 18.5419 81.231 18.4664C85.5267 18.2534 89.7749 18.3614 94.0754 18.4494C95.5385 18.4803 96.7526 17.318 96.7835 15.8549C96.8141 14.383 95.6515 13.1688 94.1888 13.1467Z" fill="black"/>
</g>
<defs>
<clipPath id="clip0_10_378">
<rect width="100" height="32" fill="white"/>
</clipPath>
</defs>
</svg>
