<svg width="1440" height="1287" viewBox="0 0 1440 1287" fill="none" xmlns="http://www.w3.org/2000/svg">
<path d="M-1169 688.627L-1129.11 695.415L-1090.3 705.479L-1050.73 711.931L-1011.69 720.836L-972.655 729.824L-933.389 737.637L-894.51 747.349L-854.807 753.145L-816.012 763.26L-776.444 769.695L-737.733 780.179L-698.232 786.95L-659.084 795.385L-619.65 802.475L-580.418 810.473L-541.421 819.613L-502.223 827.829L-462.823 835.037L-423.826 844.177L-384.611 852.292L-345.278 859.904L-306.583 870.472L-267.368 878.604L-227.901 885.526L-188.955 894.902L-149.252 900.749L-110.322 910.157L-71.2249 918.878L-32.0767 927.329L7.23938 935.007L46.3202 943.744L85.401 952.515L125.053 958.496L164.285 966.578L203.484 974.744L242.514 983.766L281.881 991.176L320.541 1002L360.059 1008.65L399.476 1015.77L438.523 1024.61L477.436 1034.26L517.138 1039.98L556.219 1048.74L595.552 1056.25L634.162 1067.32L673.411 1075.23L712.492 1084.02L751.775 1091.78L790.94 1100.19L830.172 1108.2L869.79 1114.47L908.703 1124.03L948.036 1131.55L987.352 1139.25L1026.4 1148.14L1065.35 1157.56L1104.53 1165.88L1143.94 1173.09L1183.55 1179.36L1222.11 1190.66L1261.88 1196.16L1301.11 1204.24L1340.1 1213.45L1379.37 1221.28L1418.5 1229.86L1457.95 1236.83L1496.95 1246.11L1536.11 1254.49L1574.99 1264.27L1614.28 1272.08L1653.44 1280.6L1692 1286.67L1688.69 1247.35L1681.15 1207.58L1676.81 1167.34L1669.45 1127.54L1665.29 1087.28L1658.25 1047.43L1652.2 1007.44L1646.38 967.401L1641.29 927.279L1636.07 887.173L1629.77 847.201L1625.48 806.961L1620.21 766.856L1612.43 727.119L1606.01 687.165L1602.75 646.774L1596.38 606.836L1591.07 566.73L1585.12 526.725L1579.75 486.636L1574.74 446.48L1566.12 406.862L1560.95 366.739L1556.86 326.465L1550.19 286.561L1543.72 246.623L1538.65 206.484L1533.63 166.345L1528.17 126.256L1523.48 86.0658L1517.28 46.0946L1511.03 6.12317L1503.69 -33.6803L1500.36 -74.0715L1492.78 -113.841L1489.02 -154.166L1480.67 -193.834L1476.08 -234.041L1469.23 -273.928L1464.08 -314.051L1458.59 -354.123L1454.14 -394.346L1447.52 -434.25L1443.5 -474.541L1435.03 -514.193L1430.77 -554.433L1426.58 -594.69L1417.9 -634.309L1414.6 -674.7L1409.36 -714.806L1402.51 -754.693L1395.03 -794.48L1389.4 -834.552L1383.87 -874.624L1380.75 -915.032L1373.56 -954.869L1367.94 -994.925L1362.17 -1034.96L1357.11 -1075.1L1352.76 -1115.36L1344.78 -1155.08L1338.24 -1195.02L1335.43 -1235.48L1327.02 -1275.14L1324.24 -1315.6L1317.34 -1355.49L1311.69 -1395.55L1304.33 -1435.35L1300.33 -1475.66L1293.24 -1515.51L1288.54 -1555.72L1281.11 -1595.52L1276.39 -1635.73L1271.37 -1676L1241.43 -1648.61L1213.74 -1619.06L1184.81 -1590.82L1155.74 -1562.71L1126.74 -1534.51L1097.08 -1506.99L1069.06 -1477.81L1039.12 -1450.59L1009.65 -1422.9L980.379 -1394.97L952.908 -1365.2L923.237 -1337.71L894.623 -1309.12L864.061 -1282.54L835.044 -1254.36L806.229 -1226L778.725 -1196.24L749.691 -1168.08L719.297 -1141.34L689.676 -1113.8L661.23 -1085.03L633.07 -1055.98L603.919 -1027.94L575.088 -999.579L544.761 -972.746L516.013 -944.301L486.022 -917.133L457.14 -888.822L429.719 -858.999L400.585 -830.923L371.266 -803.082L341.191 -775.981L313.518 -746.427L284.367 -718.402L254.863 -690.712L225.259 -663.141L196.813 -634.376L167.528 -606.485L139.133 -577.67L108.621 -551.039L80.2261 -522.208L50.823 -494.451L23.0162 -465.031L-7.02527 -437.913L-35.0507 -408.729L-65.1761 -381.712L-94.5457 -353.905L-122.084 -324.216L-151.672 -296.611L-181.696 -269.493L-210.427 -241.03L-239.477 -212.887L-267.704 -183.888L-295.881 -154.854L-326.544 -128.375L-354.065 -98.6525L-383.233 -70.6105L-413.308 -43.5428L-441.283 -14.291L-470.552 13.6335L-501.417 39.9115L-528.299 70.2889L-558.274 97.5078L-586.971 126.004L-616.996 153.138L-644.685 182.693L-674.172 210.399L-704.029 237.718L-732.474 266.5L-760.785 295.416L-790.289 323.105L-818.751 351.836L-848.02 379.76L-876.952 408.038L-906.977 435.189L-936.733 462.61L-965.632 490.904L-994.262 519.5L-1022.51 548.5L-1052.09 576.089L-1081.41 603.979L-1111.12 631.484L-1139.7 660.148L-1169 688.627Z" fill="#FFC32D"/>
</svg>
