<svg width="1440" height="2268" viewBox="0 0 1440 2268" fill="none" xmlns="http://www.w3.org/2000/svg">
<g clip-path="url(#clip0_10_373)">
<path d="M-832 1810.18L-792.113 1815.38L-753.301 1823.08L-713.733 1828.02L-674.685 1834.84L-635.655 1841.72L-596.389 1847.7L-557.51 1855.14L-517.807 1859.57L-479.012 1867.32L-439.444 1872.24L-400.733 1880.27L-361.232 1885.45L-322.084 1891.91L-282.65 1897.34L-243.418 1903.46L-204.421 1910.46L-165.223 1916.75L-125.823 1922.26L-86.826 1929.26L-47.6108 1935.47L-8.27795 1941.3L30.4165 1949.39L69.6317 1955.62L109.099 1960.92L148.045 1968.09L187.748 1972.57L226.678 1979.77L265.775 1986.45L304.923 1992.92L344.239 1998.79L383.32 2005.48L422.401 2012.2L462.053 2016.78L501.285 2022.96L540.484 2029.21L579.514 2036.12L618.881 2041.79L657.541 2050.08L697.059 2055.17L736.476 2060.62L775.523 2067.39L814.436 2074.77L854.138 2079.16L893.219 2085.86L932.552 2091.61L971.162 2100.08L1010.41 2106.14L1049.49 2112.87L1088.77 2118.81L1127.94 2125.24L1167.17 2131.38L1206.79 2136.18L1245.7 2143.49L1285.04 2149.26L1324.35 2155.15L1363.4 2161.95L1402.35 2169.17L1441.53 2175.53L1480.94 2181.05L1520.55 2185.85L1559.11 2194.51L1598.88 2198.71L1638.11 2204.9L1677.1 2211.95L1716.37 2217.94L1755.5 2224.51L1794.95 2229.85L1833.95 2236.95L1873.11 2243.37L1911.99 2250.85L1951.28 2256.84L1990.44 2263.36L2029 2268L2025.69 2237.9L2018.15 2207.46L2013.81 2176.65L2006.45 2146.18L2002.29 2115.36L1995.25 2084.86L1989.2 2054.24L1983.38 2023.59L1978.29 1992.88L1973.07 1962.18L1966.77 1931.58L1962.48 1900.77L1957.21 1870.07L1949.43 1839.65L1943.01 1809.06L1939.75 1778.14L1933.38 1747.57L1928.07 1716.87L1922.12 1686.24L1916.75 1655.55L1911.74 1624.81L1903.12 1594.49L1897.95 1563.77L1893.86 1532.94L1887.19 1502.39L1880.72 1471.82L1875.65 1441.09L1870.63 1410.36L1865.17 1379.67L1860.48 1348.91L1854.28 1318.31L1848.03 1287.71L1840.69 1257.24L1837.36 1226.32L1829.78 1195.87L1826.02 1165L1817.67 1134.64L1813.08 1103.86L1806.23 1073.32L1801.08 1042.61L1795.59 1011.93L1791.14 981.14L1784.52 950.592L1780.5 919.748L1772.03 889.394L1767.77 858.589L1763.58 827.771L1754.9 797.442L1751.6 766.521L1746.36 735.819L1739.51 705.284L1732.03 674.827L1726.4 644.151L1720.87 613.474L1717.75 582.541L1710.56 552.044L1704.94 521.381L1699.17 490.73L1694.11 460.003L1689.76 429.185L1681.78 398.779L1675.24 368.205L1672.43 337.233L1664.02 306.866L1661.24 275.894L1654.34 245.359L1648.69 214.695L1641.33 184.225L1637.33 153.369L1630.24 122.859L1625.54 92.0803L1618.11 61.6098L1613.39 30.8306L1608.37 0L1578.43 20.9653L1550.74 43.5899L1521.81 65.2112L1492.74 86.7296L1463.74 108.312L1434.08 129.381L1406.06 151.722L1376.12 172.559L1346.65 193.756L1317.38 215.133L1289.91 237.924L1260.24 258.967L1231.62 280.858L1201.06 301.206L1172.04 322.776L1143.23 344.488L1115.72 367.267L1086.69 388.823L1056.3 409.3L1026.68 430.381L998.23 452.401L970.07 474.64L940.919 496.107L912.088 517.818L881.761 538.359L853.013 560.135L823.022 580.933L794.14 602.606L766.719 625.436L737.585 646.929L708.266 668.241L678.191 688.988L650.518 711.613L621.367 733.067L591.863 754.264L562.259 775.37L533.813 797.39L504.528 818.742L476.133 840.8L445.621 861.187L417.226 883.258L387.823 904.507L360.016 927.028L329.975 947.788L301.949 970.129L271.824 990.812L242.454 1012.1L214.916 1034.83L185.328 1055.96L155.304 1076.72L126.573 1098.51L97.5226 1120.05L69.2957 1142.25L41.1192 1164.48L10.4561 1184.75L-17.0652 1207.5L-46.233 1228.97L-76.3082 1249.69L-104.283 1272.08L-133.552 1293.46L-164.417 1313.58L-191.299 1336.83L-221.274 1357.67L-249.971 1379.48L-279.996 1400.25L-307.685 1422.88L-337.172 1444.09L-367.029 1465L-395.474 1487.03L-423.785 1509.17L-453.289 1530.37L-481.751 1552.36L-511.02 1573.74L-539.952 1595.39L-569.977 1616.17L-599.733 1637.16L-628.632 1658.82L-657.262 1680.71L-685.506 1702.91L-715.093 1724.03L-744.413 1745.38L-774.118 1766.44L-802.698 1788.38L-832 1810.18Z" fill="#FFEAAF"/>
</g>
<defs>
<clipPath id="clip0_10_373">
<rect width="1691" height="2268" fill="white" transform="translate(-135)"/>
</clipPath>
</defs>
</svg>
