<svg width="39" height="39" viewBox="0 0 39 39" fill="none" xmlns="http://www.w3.org/2000/svg">
<path fill-rule="evenodd" clip-rule="evenodd" d="M8.98675 21.6593C8.83888 21.5142 8.68991 21.369 8.53987 21.2249C7.0102 19.7586 5.49245 18.2907 4.06841 16.7183C3.72337 16.3375 3.07554 15.5986 2.42499 15.2184C1.9597 14.9465 1.47814 14.8327 1.03777 14.8891C0.757183 14.9248 0.347159 15.0662 0.141325 15.6041C0.106659 15.6945 0.0655013 15.85 0.0492513 16.0482C0.0232513 16.3689 0.0486972 16.9441 0.0568222 17.0238C0.170572 18.184 0.284318 19.2934 0.49286 20.4412C0.68461 21.4974 0.815688 22.5618 1.02206 23.6164C1.33081 25.1943 1.72841 26.7131 2.30799 28.2157C2.52303 28.7736 3.15082 29.0515 3.70874 28.8364C4.26612 28.6214 4.54453 27.9942 4.32949 27.4362C3.79595 26.0523 3.43249 24.6537 3.14866 23.2004C2.94391 22.1555 2.81444 21.1004 2.62432 20.0539C2.50082 19.373 2.41306 18.7062 2.33831 18.0334L2.46235 18.1726C3.92106 19.783 5.47403 21.2872 7.04053 22.7887C7.62662 23.351 8.19267 23.9295 8.78796 24.4825C8.83617 24.5529 9.05877 24.8758 9.16819 24.9863C9.35019 25.1704 9.54682 25.2733 9.71799 25.3243C10.1529 25.4543 10.5944 25.4061 10.9801 24.9186C11.2688 24.5535 11.4351 23.9874 11.4226 23.3114C11.4058 22.3825 11.0532 21.1578 10.9785 20.5934C10.505 17.0222 9.73913 13.465 9.53546 9.86295C9.50188 9.26604 8.99 8.80885 8.39308 8.84244C7.79616 8.87656 7.33844 9.38843 7.37256 9.98534C7.57894 13.6416 8.34975 17.2529 8.83021 20.8783C8.85621 21.0711 8.91796 21.3457 8.98675 21.6593Z" fill="black"/>
<path fill-rule="evenodd" clip-rule="evenodd" d="M18.4527 6.85594C17.2242 7.18148 15.9935 7.4653 15.0066 8.30922C13.9742 9.19268 13.4493 10.4759 13.2624 11.9059C13.0241 13.7302 13.3437 15.7999 13.5419 17.2749C13.6448 18.0386 13.6887 19.103 13.9114 20.0461C14.1031 20.8569 14.4297 21.5833 14.9275 22.0919C15.7097 22.8909 16.91 22.9716 18.1412 22.4733C19.5636 21.8975 20.9801 20.5688 21.3652 19.7942C21.6317 19.259 21.4134 18.6079 20.8777 18.342C20.3425 18.0755 19.692 18.2938 19.4255 18.8289C19.1812 19.3202 18.2306 20.0997 17.3282 20.4653C17.1267 20.5466 16.9273 20.6072 16.7388 20.6224C16.6408 20.6305 16.5428 20.6446 16.4761 20.5769C16.1495 20.2427 16.0347 19.6994 15.9399 19.1507C15.8072 18.3859 15.7703 17.5869 15.6896 16.9856C15.512 15.6667 15.1978 13.818 15.4107 12.1865C15.525 11.3117 15.7833 10.4965 16.4155 9.95591C17.1489 9.32866 18.0935 9.19269 19.0073 8.95057C19.5853 8.79782 19.9303 8.20414 19.777 7.62619C19.6243 7.04823 19.0306 6.70319 18.4527 6.85594Z" fill="black"/>
<path fill-rule="evenodd" clip-rule="evenodd" d="M18.3696 12.5644C17.4179 13.0827 16.4006 13.6157 15.3807 13.9819C14.8179 14.1839 14.5248 14.8047 14.7263 15.3675C14.9284 15.9303 15.5491 16.2233 16.1119 16.0213C17.2353 15.6183 18.3582 15.0382 19.4058 14.4678C19.9307 14.1818 20.1251 13.5231 19.8391 12.9982C19.5531 12.4728 18.895 12.2789 18.3696 12.5644Z" fill="black"/>
<path fill-rule="evenodd" clip-rule="evenodd" d="M31.4532 13.1395C30.6624 12.1829 29.8266 11.2415 28.9437 10.3813C28.8716 10.3114 27.9811 9.57801 27.4519 9.30393C27.095 9.11922 26.7786 9.08564 26.5934 9.10351C26.0544 9.15551 25.7256 9.44747 25.5907 9.94689C25.4618 10.4257 25.4153 10.9246 25.4153 11.4338C24.6141 9.93172 23.8813 8.38689 23.436 6.76027C23.3992 6.62594 23.3694 6.5631 23.3645 6.55172C23.2145 6.22022 23.0016 6.10753 22.9258 6.06312C22.5531 5.84428 22.2173 5.88114 21.934 6.00844C21.8993 6.0236 21.1355 6.36268 21.3181 7.2288C21.3327 7.29868 21.4573 7.79646 21.4936 7.99092C21.5256 8.15992 21.5949 8.31213 21.6918 8.44104C22.4382 10.585 23.5801 12.6103 24.6759 14.5879C24.9126 15.0153 25.0973 15.4556 25.2192 15.9285C25.2549 16.0666 25.2696 16.3792 25.301 16.5325C25.3546 16.7919 25.4608 16.9658 25.5285 17.0546C25.8805 17.5172 26.3144 17.5643 26.7147 17.4457C26.8859 17.3953 27.2287 17.28 27.4373 16.7832C27.9064 15.6674 27.8533 14.4351 27.7173 13.1936C27.6773 12.8264 27.6274 12.4591 27.5971 12.0962C28.5607 13.0539 29.4626 14.1101 30.3103 15.1658C30.4035 15.2817 31.3471 16.3369 31.5978 16.494C32.2251 16.8883 32.7121 16.592 32.9206 16.4154C33.2386 16.1457 33.4888 15.6826 33.5906 15.0927C33.7217 14.3295 33.6183 13.2792 33.608 12.8567C33.5392 10.0129 33.4362 7.04031 32.7976 4.26372C32.6638 3.68089 32.0821 3.31687 31.4993 3.45066C30.9164 3.58445 30.5524 4.16676 30.6862 4.74905C31.2924 7.38589 31.3763 10.2096 31.4418 12.9093C31.4435 12.9716 31.4478 13.0495 31.4532 13.1395Z" fill="black"/>
<path fill-rule="evenodd" clip-rule="evenodd" d="M35.782 3.54333C36.1747 5.44187 36.568 7.32307 36.8247 9.27523C36.9027 9.86836 37.4471 10.2865 38.0402 10.2085C38.6328 10.1305 39.051 9.58615 38.973 8.99303C38.6111 6.23973 37.985 3.62566 37.4606 0.909748C37.2586 -0.140002 36.2609 0.00680443 36.1996 0.0176378C36.0648 0.0414711 35.3297 0.198011 35.3054 1.05872C35.3037 1.11126 35.3389 1.48282 35.3449 1.6269C35.3579 1.95678 35.3514 2.27908 35.3346 2.6095C35.3151 2.99029 35.4944 3.33533 35.782 3.54333Z" fill="black"/>
<path fill-rule="evenodd" clip-rule="evenodd" d="M38.5858 14.739C38.6957 14.4042 38.64 14.0218 38.4038 13.7255C38.0306 13.2581 37.3486 13.1817 36.8811 13.5549C36.4494 13.8994 36.3687 14.3192 36.4267 14.8327C36.4938 15.4269 37.0312 15.8548 37.6254 15.7871C38.1687 15.7259 38.5728 15.2709 38.5858 14.739Z" fill="black"/>
<path fill-rule="evenodd" clip-rule="evenodd" d="M18.1351 35.6365C18.0246 35.4025 17.9358 35.2178 17.9147 35.1782C16.9083 33.2959 15.8163 31.4386 14.6273 29.6657C14.2942 29.169 13.6209 29.0363 13.1242 29.3694C12.6275 29.7025 12.4948 30.3758 12.8279 30.8725C13.9768 32.5853 15.0314 34.3809 16.0042 36.1998C16.0784 36.3385 16.573 37.5708 16.9261 38.0848C17.2463 38.5501 17.6482 38.7164 17.8784 38.7505C18.244 38.8047 18.816 38.6736 19.2802 38.0539C19.8864 37.2452 20.6723 35.0845 20.8018 34.726C21.039 34.0662 21.24 33.374 21.4263 32.7007C21.7795 31.4234 21.9826 30.1234 22.1641 28.8136C22.2464 28.2211 21.832 27.674 21.2394 27.5917C20.6474 27.5099 20.0998 27.9243 20.018 28.5163C19.8495 29.7313 19.6659 30.9381 19.3382 32.1227C19.1659 32.744 18.9818 33.3837 18.7629 33.9925C18.6968 34.1751 18.4401 34.9291 18.1351 35.6365Z" fill="black"/>
</svg>
