<svg width="29" height="29" viewBox="0 0 29 29" fill="none" xmlns="http://www.w3.org/2000/svg">
<path fill-rule="evenodd" clip-rule="evenodd" d="M6.68245 16.1057C6.5725 15.9977 6.46173 15.8898 6.35016 15.7826C5.21271 14.6923 4.08413 13.6008 3.02523 12.4315C2.76866 12.1484 2.28694 11.599 1.8032 11.3162C1.45721 11.114 1.09913 11.0295 0.771671 11.0714C0.563032 11.0979 0.258142 11.2031 0.105087 11.603C0.0793088 11.6703 0.0487045 11.7859 0.0366212 11.9333C0.0172879 12.1717 0.0362092 12.5995 0.0422509 12.6587C0.126834 13.5215 0.211415 14.3463 0.366484 15.1998C0.509067 15.9853 0.606535 16.7767 0.759994 17.5609C0.989577 18.7342 1.28523 19.8636 1.7162 20.9809C1.8761 21.3958 2.34292 21.6024 2.75778 21.4425C3.17224 21.2826 3.37926 20.8162 3.21936 20.4013C2.82263 19.3722 2.55237 18.3322 2.34131 17.2516C2.18906 16.4746 2.09279 15.69 1.95141 14.9118C1.85958 14.4055 1.79432 13.9097 1.73874 13.4095L1.83098 13.513C2.91566 14.7104 4.07043 15.829 5.23527 16.9455C5.67107 17.3636 6.09198 17.7937 6.53463 18.205C6.57048 18.2573 6.73601 18.4974 6.81737 18.5795C6.9527 18.7165 7.09892 18.793 7.22619 18.8309C7.54962 18.9275 7.8779 18.8917 8.16467 18.5292C8.37935 18.2577 8.50299 17.8368 8.49372 17.3341C8.48124 16.6434 8.21905 15.7327 8.16347 15.313C7.81144 12.6575 7.24191 10.0125 7.09047 7.33399C7.0655 6.89013 6.68487 6.55017 6.24101 6.57514C5.79715 6.60052 5.45678 6.98114 5.48216 7.425C5.63562 10.1437 6.20879 12.8291 6.56605 15.5249C6.58538 15.6683 6.6313 15.8725 6.68245 16.1057Z" fill="#FFF500"/>
<path fill-rule="evenodd" clip-rule="evenodd" d="M13.7212 5.09801C12.8077 5.34007 11.8926 5.55112 11.1587 6.17865C10.391 6.83558 10.0008 7.78977 9.86181 8.8531C9.68459 10.2097 9.92222 11.7487 10.0696 12.8454C10.1462 13.4133 10.1788 14.2048 10.3443 14.9061C10.4869 15.509 10.7298 16.0491 11.0999 16.4273C11.6815 17.0214 12.5741 17.0814 13.4896 16.7109C14.5473 16.2827 15.6006 15.2947 15.887 14.7188C16.0851 14.3208 15.9228 13.8367 15.5244 13.6389C15.1265 13.4407 14.6428 13.6031 14.4446 14.001C14.263 14.3663 13.5561 14.9459 12.8851 15.2178C12.7352 15.2782 12.587 15.3233 12.4468 15.3346C12.3739 15.3406 12.301 15.3511 12.2515 15.3008C12.0086 15.0523 11.9232 14.6483 11.8527 14.2403C11.7541 13.6715 11.7267 13.0774 11.6666 12.6303C11.5345 11.6496 11.3009 10.2749 11.4592 9.06174C11.5442 8.41126 11.7363 7.80508 12.2064 7.40311C12.7517 6.93669 13.4542 6.83559 14.1337 6.65555C14.5634 6.54197 14.82 6.10052 14.706 5.67075C14.5924 5.24099 14.151 4.98442 13.7212 5.09801Z" fill="#FFF500"/>
<path fill-rule="evenodd" clip-rule="evenodd" d="M13.6594 9.34274C12.9518 9.7282 12.1953 10.1245 11.4369 10.3968C11.0184 10.547 10.8005 11.0086 10.9504 11.4271C11.1006 11.8456 11.5622 12.0635 11.9807 11.9132C12.816 11.6136 13.651 11.1822 14.4299 10.7581C14.8202 10.5454 14.9648 10.0556 14.7522 9.66535C14.5395 9.27465 14.0501 9.13047 13.6594 9.34274Z" fill="#FFF500"/>
<path fill-rule="evenodd" clip-rule="evenodd" d="M23.3883 9.77037C22.8002 9.05907 22.1787 8.35905 21.5222 7.71943C21.4686 7.66748 20.8065 7.12211 20.413 6.9183C20.1475 6.78096 19.9123 6.75599 19.7746 6.76928C19.3738 6.80795 19.1293 7.02505 19.029 7.39641C18.9332 7.75246 18.8985 8.12342 18.8985 8.50203C18.3028 7.38513 17.7579 6.23641 17.4268 5.02687C17.3994 4.92698 17.3772 4.88025 17.3736 4.87179C17.262 4.62529 17.1037 4.5415 17.0474 4.50847C16.7702 4.34575 16.5205 4.37316 16.3099 4.46781C16.2841 4.47909 15.7162 4.73122 15.8519 5.37527C15.8628 5.42722 15.9554 5.79737 15.9824 5.94197C16.0062 6.06763 16.0577 6.18081 16.1298 6.27667C16.6849 7.87087 17.5339 9.37686 18.3487 10.8474C18.5248 11.1652 18.6621 11.4926 18.7527 11.8443C18.7793 11.947 18.7902 12.1794 18.8135 12.2934C18.8534 12.4863 18.9324 12.6156 18.9827 12.6816C19.2445 13.0256 19.5671 13.0607 19.8648 12.9725C19.9921 12.935 20.247 12.8492 20.4021 12.4799C20.7509 11.6501 20.7114 10.7338 20.6103 9.81064C20.5805 9.53756 20.5435 9.26447 20.5209 8.99461C21.2375 9.70672 21.9081 10.4921 22.5384 11.2771C22.6077 11.3633 23.3093 12.148 23.4958 12.2648C23.9623 12.558 24.3244 12.3377 24.4794 12.2064C24.7159 12.0058 24.9019 11.6614 24.9777 11.2228C25.0751 10.6553 24.9982 9.87427 24.9905 9.56011C24.9394 7.44552 24.8628 5.2351 24.388 3.17046C24.2885 2.73707 23.8559 2.46639 23.4225 2.56588C22.9891 2.66536 22.7185 3.09836 22.818 3.53135C23.2687 5.49207 23.3311 7.59175 23.3798 9.5992C23.381 9.64551 23.3843 9.70351 23.3883 9.77037Z" fill="#FFF500"/>
<path fill-rule="evenodd" clip-rule="evenodd" d="M26.6071 2.63478C26.8992 4.04652 27.1916 5.44536 27.3825 6.89697C27.4405 7.33801 27.8453 7.64896 28.2863 7.59096C28.7269 7.53296 29.0379 7.12816 28.9799 6.68712C28.7108 4.6398 28.2452 2.69601 27.8553 0.676479C27.7051 -0.104104 26.9632 0.0050597 26.9177 0.0131153C26.8174 0.0308375 26.2708 0.147239 26.2527 0.787253C26.2515 0.826322 26.2777 1.10261 26.2821 1.20975C26.2918 1.45504 26.2869 1.6947 26.2744 1.9404C26.2599 2.22355 26.3933 2.48012 26.6071 2.63478Z" fill="#FFF500"/>
<path fill-rule="evenodd" clip-rule="evenodd" d="M28.692 10.9597C28.7738 10.7108 28.7323 10.4265 28.5567 10.2062C28.2791 9.85856 27.772 9.80177 27.4244 10.0793C27.1034 10.3354 27.0434 10.6476 27.0865 11.0294C27.1365 11.4713 27.536 11.7895 27.9779 11.7391C28.3818 11.6936 28.6823 11.3553 28.692 10.9597Z" fill="#FFF500"/>
<path fill-rule="evenodd" clip-rule="evenodd" d="M13.4851 26.4989C13.4029 26.3249 13.3369 26.1876 13.3212 26.1582C12.5728 24.7585 11.7608 23.3774 10.8767 22.0591C10.629 21.6898 10.1284 21.5911 9.75902 21.8388C9.38967 22.0865 9.29099 22.5872 9.5387 22.9565C10.393 24.2301 11.1772 25.5653 11.9006 26.9178C11.9557 27.0209 12.3235 27.9372 12.5861 28.3195C12.8241 28.6655 13.123 28.7891 13.2942 28.8145C13.5661 28.8548 13.9914 28.7573 14.3366 28.2965C14.7873 27.6952 15.3717 26.0885 15.468 25.8219C15.6444 25.3313 15.7938 24.8165 15.9324 24.3159C16.195 23.3661 16.346 22.3994 16.481 21.4255C16.5422 20.9849 16.2341 20.5781 15.7934 20.5169C15.3532 20.4561 14.946 20.7642 14.8852 21.2044C14.7599 22.1079 14.6234 23.0052 14.3797 23.8861C14.2516 24.3481 14.1146 24.8238 13.9519 25.2765C13.9028 25.4122 13.7119 25.9729 13.4851 26.4989Z" fill="#FFF500"/>
</svg>
