<svg width="697" height="754" viewBox="0 0 697 754" fill="none" xmlns="http://www.w3.org/2000/svg">
<path d="M691.733 572.51L682.842 573.495L673.935 574.985L664.976 576.105L656.077 577.645L647.133 578.847L638.234 580.413L629.257 581.39L620.339 582.787L611.373 583.847L602.41 584.944L593.522 586.577L584.578 587.795L575.559 588.484L566.627 589.802L557.671 590.948L548.78 592.536L539.825 593.682L530.937 595.304L521.933 596.106L513.015 597.525L504.038 598.499L495.158 600.181L486.146 600.933L477.262 602.578L468.344 604.001L459.374 605.046L450.445 606.375L441.516 607.701L432.587 609.046L423.632 610.177L414.61 610.859L405.711 612.409L396.778 613.72L387.883 615.282L378.882 616.121L369.976 617.627L360.998 618.597L352.122 620.304L343.148 621.323L334.234 622.765L325.256 623.754L316.35 625.271L307.331 625.964L298.402 627.286L289.529 629.012L280.518 629.765L271.619 631.297L262.645 632.316L253.686 633.432L244.817 635.196L235.862 636.331L226.907 637.477L217.929 638.481L209.034 640.035L200.064 641.095L191.172 642.687L182.138 643.282L173.205 644.604L164.262 645.822L155.318 647.05L146.366 648.222L137.441 649.616L128.564 651.342L119.594 652.395L110.68 653.837L101.676 654.635L92.7437 655.972L83.8634 657.657L74.882 658.601L65.9605 660.02L56.9716 660.919L48.0052 662.017L39.0875 663.432L30.2035 665.125L21.2221 666.099L12.2968 667.477L3.27799 668.582L3.11319 659.534L3.01207 650.533L3.54766 641.533L2.96338 632.533L3.25926 623.533L3.30046 614.533L3.67875 605.533L3.06076 596.533L3.66751 587.532L3.20308 578.532L3.24428 569.532L3.59635 560.532L3.41657 551.532L2.97836 542.532L3.66376 533.532L3.12443 524.532L3.36788 515.535L3.17312 506.535L3.28174 497.535L3.67875 488.539L3.00458 479.539L3.28922 470.538L3.1057 461.538L3.20308 452.538L3.36788 443.538L3.66751 434.538L3.54391 425.542L3.51769 416.541L3.03454 407.538L3.38661 398.537L3.00083 389.537L3.24803 380.537L3.13567 371.537L3.00832 362.537L3.52893 353.537L3.05327 344.537L3.17686 335.533L3.44653 326.533L3.68998 317.533L3.07948 308.532L3.55889 299.529L3.11694 290.528L3.29297 281.528L3.51021 272.528L3.36039 263.528L3.31544 254.524L3.15439 245.52L3.06076 236.52L3.2705 227.516L3.10945 218.325L12.3006 217.434L21.2108 215.883L30.0986 214.198L39.1399 213.531L48.0427 211.966L57.0016 210.748L65.8706 208.928L74.8408 207.797L83.8259 206.759L92.7661 205.419L101.654 203.711L110.572 202.239L119.587 201.392L128.482 199.771L137.471 198.737L146.422 197.486L155.284 195.617L164.262 194.527L173.217 193.299L182.127 191.759L191.086 190.535L200.06 189.415L208.97 187.883L217.948 186.797L226.824 185.021L235.731 183.46L244.682 182.182L253.645 180.991L262.585 179.643L271.518 178.268L280.503 177.216L289.398 175.583L298.409 174.699L307.271 172.845L316.264 171.856L325.196 170.459L334.178 169.373L343.088 167.834L352.013 166.392L360.942 164.984L369.86 163.489L378.864 162.549L387.796 161.171L396.714 159.673L405.681 158.523L414.666 157.482L423.524 155.59L432.452 154.182L441.468 153.332L450.348 151.59L459.284 150.234L468.273 149.216L477.18 147.639L486.124 146.328L495.053 144.905L504.079 144.137L513.023 142.811L521.929 141.249L530.843 139.736L539.829 138.672L548.769 137.32L557.731 136.129L566.612 134.38L575.608 133.399L584.5 131.725L593.436 130.35L602.447 129.481L611.339 127.8L620.275 126.421L629.182 124.852L638.193 123.972L647.103 122.41L656.047 121.088L664.98 119.676L673.917 118.294L682.902 117.226L691.617 116.032L691.726 124.736L691.535 133.691L691.509 142.65L692.179 151.605L691.655 160.564L692.085 169.519L691.801 178.474L692.014 187.433L691.587 196.389L691.591 205.347L691.636 214.303L691.902 223.262L691.973 232.217L691.857 241.172L691.655 250.131L692.13 259.086L692.168 268.045L691.872 277L691.879 285.955L691.598 294.911L691.651 303.866L691.756 312.825L692.16 321.78L691.494 330.735L691.861 339.694L692.164 348.649L691.625 357.604L691.46 366.563L692.198 375.518L691.561 384.477L692.16 393.432L692.201 402.391L692.089 411.347L691.763 420.305L691.778 429.261L691.73 438.22L691.988 447.179L691.673 456.134L691.583 465.093L692.183 474.052L691.651 483.01L691.561 491.966L691.763 500.925V509.88L692.082 518.839L691.557 527.798L692.04 536.757L692.145 545.715L692.022 554.674L691.774 563.637L691.733 572.51Z" fill="#FFEAAF"/>
<path d="M412.707 78.5853L432.505 98.3796" stroke="#FFC32D" stroke-width="5" stroke-miterlimit="10"/>
<path d="M426.722 77.8999L411.827 77.7014L412.025 92.6005" stroke="#FFC32D" stroke-width="5" stroke-miterlimit="10"/>
<path d="M57.099 160.639L76.8933 180.437" stroke="#FFC32D" stroke-width="5" stroke-miterlimit="10"/>
<path d="M71.1104 159.954L56.2151 159.759L56.4136 174.654" stroke="#FFC32D" stroke-width="5" stroke-miterlimit="10"/>
<path d="M18.5891 397.047L38.3834 416.841" stroke="#FFC32D" stroke-width="5" stroke-miterlimit="10"/>
<path d="M32.6043 396.361L17.7052 396.163L17.9037 411.058" stroke="#FFC32D" stroke-width="5" stroke-miterlimit="10"/>
<path d="M83.5975 569.806L103.396 589.6" stroke="#FFC32D" stroke-width="5" stroke-miterlimit="10"/>
<path d="M97.6127 569.12L82.7136 568.922L82.9121 583.821" stroke="#FFC32D" stroke-width="5" stroke-miterlimit="10"/>
<path d="M136.845 93.4807L156.643 113.279" stroke="#FFC32D" stroke-width="5" stroke-miterlimit="10"/>
<path d="M150.861 92.7953L135.965 92.6006L136.164 107.496" stroke="#FFC32D" stroke-width="5" stroke-miterlimit="10"/>
<path d="M367.051 116.661L386.849 136.459" stroke="#FFC32D" stroke-width="5" stroke-miterlimit="10"/>
<path d="M381.066 115.979L366.167 115.781L366.366 130.676" stroke="#FFC32D" stroke-width="5" stroke-miterlimit="10"/>
<path d="M293.125 237.269L312.923 257.067" stroke="#FFC32D" stroke-width="5" stroke-miterlimit="10"/>
<path d="M307.14 236.588L292.241 236.389L292.439 251.284" stroke="#FFC32D" stroke-width="5" stroke-miterlimit="10"/>
<path d="M473.577 219.299L493.375 239.097" stroke="#FFC32D" stroke-width="5" stroke-miterlimit="10"/>
<path d="M487.592 218.617L472.697 218.415L472.895 233.314" stroke="#FFC32D" stroke-width="5" stroke-miterlimit="10"/>
<path d="M617.032 174.148L636.83 193.943" stroke="#FFC32D" stroke-width="5" stroke-miterlimit="10"/>
<path d="M631.047 173.463L616.152 173.265L616.35 188.16" stroke="#FFC32D" stroke-width="5" stroke-miterlimit="10"/>
<path d="M642.234 300.866L662.029 320.664" stroke="#FFC32D" stroke-width="5" stroke-miterlimit="10"/>
<path d="M656.25 300.184L641.351 299.985L641.549 314.881" stroke="#FFC32D" stroke-width="5" stroke-miterlimit="10"/>
<path d="M627.373 493.565L647.171 513.359" stroke="#FFC32D" stroke-width="5" stroke-miterlimit="10"/>
<path d="M641.388 492.88L626.489 492.681L626.687 507.58" stroke="#FFC32D" stroke-width="5" stroke-miterlimit="10"/>
<path d="M278.518 69.1283L298.316 88.9226" stroke="#FFC32D" stroke-width="5" stroke-miterlimit="10"/>
<path d="M292.533 68.4429L277.634 68.2444L277.832 83.1435" stroke="#FFC32D" stroke-width="5" stroke-miterlimit="10"/>
<path d="M21.4806 91.0312L41.2749 110.829" stroke="#FFC32D" stroke-width="5" stroke-miterlimit="10"/>
<path d="M35.492 90.3458L20.5967 90.1473L20.7952 105.046" stroke="#FFC32D" stroke-width="5" stroke-miterlimit="10"/>
<path d="M596.354 93.9226L616.152 113.721" stroke="#FFC32D" stroke-width="5" stroke-miterlimit="10"/>
<path d="M610.369 93.2372L595.47 93.0387L595.672 107.938" stroke="#FFC32D" stroke-width="5" stroke-miterlimit="10"/>
<path d="M571.795 443.332H66.556V533.202H571.795V443.332Z" fill="#FFC32D"/>
<path d="M662.871 728.932L654.673 730.92L645.718 731.321L636.811 732.302L627.897 733.332L618.908 732.95L609.998 734.171L601.028 734.063L592.088 734.729L583.129 734.864L574.174 735.145L565.203 734.756L556.263 735.561L547.304 735.729L538.334 735.055L529.394 736.085L520.427 735.565L511.472 735.748L502.513 735.857L493.566 736.568L484.599 735.924L475.648 736.505L466.685 736.4L457.734 736.872L448.775 736.992L439.816 736.744L430.857 736.935L421.894 736.531L412.935 736.684L403.976 737.149L395.018 736.242L386.055 736.595L377.096 737.19L368.141 736.347L359.178 737.194L350.223 736.34L341.264 736.733L332.305 736.86L323.346 736.602L314.391 736.265L305.428 736.501L296.469 736.441L287.51 736.52L278.566 735.531L269.596 736.066L260.641 735.92L251.678 735.939L242.742 734.924L233.779 735.029L224.832 734.448L215.873 734.452L206.91 734.557L197.951 734.478L188.996 734.272L180.048 733.819L171.119 732.958L162.183 732.302L153.198 732.628L144.284 731.669L135.355 730.954L126.542 728.932L135.343 726.808L144.265 725.902L153.201 725.261L162.149 724.808L171.104 724.501L180.052 724.085L189.007 723.913L197.944 723.13L206.925 723.722L215.858 722.812L224.835 723.362L233.776 722.658L242.742 722.935L251.686 722.149L260.637 721.748L269.593 721.523L278.559 722.014L287.514 721.815L296.477 722.044L305.436 722.081L314.391 721.812L323.346 721.624L332.301 721.452L341.26 721.737L350.215 721.07L359.178 721.662L368.133 720.602L377.096 720.883L386.055 721.317L395.018 720.853L403.976 721.621L412.932 721.669L421.894 721.085L430.849 721.227L439.812 720.827L448.767 721.28L457.723 721.71L466.689 720.92L475.644 721.388L484.599 721.789L493.562 721.486L502.51 722.295L511.469 722.298L520.427 722.119L529.398 721.617L538.338 722.624L547.3 722.426L556.248 723.107L565.207 722.991L574.181 722.609L583.129 723.048L592.073 723.632L601.032 723.744L609.961 724.673L618.912 724.901L627.86 725.328L636.792 725.943L645.744 726.25L654.654 727.111L662.871 728.932Z" fill="black"/>
<path d="M566.462 528.487L557.413 528.682L548.39 528.09L539.368 528.438L530.345 528.685L521.326 528.543L512.304 528.217L503.281 528.779L494.262 528.652L485.24 528.813L476.217 528.161L467.195 528.228L458.176 528.093L449.153 528.195L440.13 528.153L431.108 528.198L422.085 528.637L413.066 528.329L404.044 528.483L395.021 528.603L385.999 528.446L376.976 528.165L367.957 528.146L358.935 528.371L349.916 528.813L340.893 528.108L331.874 528.723L322.852 528.756L313.833 528.528L304.81 528.614L295.788 528.524L286.765 528.809L277.746 528.565L268.724 528.524L259.701 528.165L250.678 528.258L241.656 528.187L232.637 528.753L223.614 528.123L214.592 528.543L205.569 528.236L196.547 528.61L187.524 528.266L178.498 528.565L169.479 528.644L160.452 528.674L151.43 528.539L142.407 528.431L133.385 528.569L124.362 528.251L115.339 528.153L106.317 528.625L97.2943 528.786L88.268 528.236L79.2454 528.389L70.219 528.303L61.2638 528.389L61.3687 519.475L61.526 510.49L60.8668 501.501L60.9829 492.516L61.3462 483.531L61.1253 474.542L60.953 465.557L61.0953 456.568L61.2451 447.579L61.2676 438.662L70.2153 438.924L79.2379 438.808L88.2567 438.684L97.2793 438.313L106.302 438.849L115.321 438.426L124.343 438.856L133.366 438.261L142.389 438.512L151.407 438.25L160.43 438.373L169.453 438.422L178.475 438.699L187.494 438.493L196.517 438.875L205.539 438.246L214.562 438.568L223.581 438.909L232.603 438.238L241.626 438.781L250.648 438.879L259.671 438.62L268.69 438.22L277.709 438.235L286.731 438.272L295.754 438.853L304.773 438.515L313.795 438.534L322.818 438.515L331.837 438.662L340.859 438.965L349.882 438.448L358.901 438.261L367.924 438.912L376.946 438.298L385.969 438.957L394.991 438.688L404.014 438.699L413.037 438.321L422.059 438.706L431.082 438.392L440.104 438.613L449.127 438.227L458.149 438.448L467.172 438.62L476.195 438.864L485.217 438.426L494.24 438.396L503.262 438.403L512.285 438.388L521.308 438.583L530.334 438.261L539.357 438.549L548.383 438.684L557.406 438.755L566.672 438.351L566.57 447.576L566.705 456.561L566.222 465.546L566.233 474.535L566.301 483.52L566.799 492.509L566.803 501.494L566.368 510.483L566.181 519.472L566.462 528.487Z" stroke="black" stroke-width="5" stroke-miterlimit="10"/>
<path d="M267.364 417.815L258.162 417.894L249.147 417.369L240.135 417.86L231.12 417.628L222.109 417.422L213.094 417.991L204.079 417.624L195.067 417.474L186.052 417.556L177.037 417.695L168.026 417.972L159.01 417.272L149.999 417.418L140.984 417.65L131.969 417.455L122.958 417.437L113.942 417.343L104.927 417.687L95.9122 417.905L86.8934 417.388L78.1217 417.377L77.0019 408.53L75.7584 399.455L74.6235 390.365L73.8969 381.23L72.7621 372.144L71.8407 363.031L70.2864 353.99L69.6347 344.848L68.3725 335.773L67.6646 326.638L66.4961 317.555L65.4998 308.45L64.1215 299.39L63.35 290.259L62.2563 281.165L60.9567 272.094L60.1627 262.966L59.0503 253.67L68.2639 254.198L77.2753 253.738L86.2904 254.049L95.3017 254.176L104.317 253.502L113.328 253.869L122.343 254.112L131.358 254.026L140.37 253.992L149.385 253.813L158.4 254.093L167.411 254.041L176.426 253.562L185.438 253.869L194.453 253.554L203.468 254.082L212.483 254.195L221.498 254.18L230.513 253.959L239.528 254.011L248.356 254.056L249.386 262.97L250.6 272.049L251.559 281.158L252.941 290.218L253.78 299.338L254.832 308.435L255.727 317.551L257.184 326.6L257.679 335.761L259.124 344.814L260.102 353.919L261.046 363.028L262.327 372.103L263.008 381.241L264.342 390.309L264.911 399.463L266.128 408.545L267.364 417.815Z" fill="white"/>
<path d="M267.364 417.815L258.162 417.894L249.147 417.369L240.135 417.86L231.12 417.628L222.109 417.422L213.094 417.991L204.079 417.624L195.067 417.474L186.052 417.556L177.037 417.695L168.026 417.972L159.01 417.272L149.999 417.418L140.984 417.65L131.969 417.455L122.958 417.437L113.942 417.343L104.927 417.687L95.9122 417.905L86.8934 417.388L78.1217 417.377L77.0019 408.53L75.7584 399.455L74.6235 390.365L73.8969 381.23L72.7621 372.144L71.8407 363.031L70.2864 353.99L69.6347 344.848L68.3725 335.773L67.6646 326.638L66.4961 317.555L65.4998 308.45L64.1215 299.39L63.35 290.259L62.2563 281.165L60.9567 272.094L60.1627 262.966L59.0503 253.67L68.2639 254.198L77.2753 253.738L86.2904 254.049L95.3017 254.176L104.317 253.502L113.328 253.869L122.343 254.112L131.358 254.026L140.37 253.992L149.385 253.813L158.4 254.093L167.411 254.041L176.426 253.562L185.438 253.869L194.453 253.554L203.468 254.082L212.483 254.195L221.498 254.18L230.513 253.959L239.528 254.011L248.356 254.056L249.386 262.97L250.6 272.049L251.559 281.158L252.941 290.218L253.78 299.338L254.832 308.435L255.727 317.551L257.184 326.6L257.679 335.761L259.124 344.814L260.102 353.919L261.046 363.028L262.327 372.103L263.008 381.241L264.342 390.309L264.911 399.463L266.128 408.545L267.364 417.815Z" stroke="black" stroke-width="5" stroke-miterlimit="10"/>
<path d="M227.708 273.161L218.378 273.09L209.187 273.229L199.992 273.333L190.797 272.794L181.603 273.378L172.411 273.086L163.217 273.041L154.022 272.663L144.827 273.285L135.632 272.674L126.437 273.142L117.242 273.098L108.047 272.745L98.916 272.951L98.504 264.199L99.1894 255.378L98.6501 246.558L98.8935 237.734L98.6988 228.913L98.8074 220.089L99.2044 211.265L98.5302 202.441L98.8261 193.591L108.043 193.4L117.238 193.497L126.43 193.662L135.624 193.962L144.819 193.838L154.01 193.816L163.205 193.329L172.4 193.681L181.595 193.295L190.79 193.542L199.985 193.43L209.18 193.302L218.378 193.823L227.761 193.422L227.719 202.437L227.45 211.258L227.206 220.082L227.817 228.902L227.337 237.726L227.779 246.55L227.603 255.371L227.39 264.199L227.708 273.161Z" fill="white"/>
<path d="M227.708 273.161L218.378 273.09L209.187 273.229L199.992 273.333L190.797 272.794L181.603 273.378L172.411 273.086L163.217 273.041L154.022 272.663L144.827 273.285L135.632 272.674L126.437 273.142L117.242 273.098L108.047 272.745L98.916 272.951L98.504 264.199L99.1894 255.378L98.6501 246.558L98.8935 237.734L98.6988 228.913L98.8074 220.089L99.2044 211.265L98.5302 202.441L98.8261 193.591L108.043 193.4L117.238 193.497L126.43 193.662L135.624 193.962L144.819 193.838L154.01 193.816L163.205 193.329L172.4 193.681L181.595 193.295L190.79 193.542L199.985 193.43L209.18 193.302L218.378 193.823L227.761 193.422L227.719 202.437L227.45 211.258L227.206 220.082L227.817 228.902L227.337 237.726L227.779 246.55L227.603 255.371L227.39 264.199L227.708 273.161Z" stroke="black" stroke-width="5" stroke-miterlimit="10"/>
<path d="M257.121 238.779L247.783 238.265L238.588 238.576L229.394 238.64L220.202 238.958L211.008 238.546L201.813 238.809L192.622 238.531L183.427 238.996L174.232 238.767L165.037 238.966L155.842 238.707L146.647 238.981L137.448 238.423L128.34 238.535L127.894 229.808L128.392 220.984L128.104 212.164L128.336 203.34L128.463 194.52L127.943 185.695L128.055 176.875L128.152 168.047L128.355 159.332L137.445 159.058L146.64 159.249L155.835 158.897L165.029 159.557L174.224 159.478L183.415 159.508L192.61 159.527L201.801 159.598L210.996 159.452L220.195 158.969L229.39 159.163L238.585 158.965L247.78 159.418L256.907 159.294L257.319 168.044L257.019 176.868L257.192 185.688L256.843 194.512L256.69 203.332L256.862 212.157L257.312 220.981L257.038 229.805L257.121 238.779Z" fill="#FFC32D"/>
<path d="M252.398 243.385L243.06 242.872L233.865 243.179L224.671 243.243L215.476 243.565L206.285 243.153L197.09 243.415L187.899 243.134L178.704 243.603L169.509 243.374L160.314 243.569L151.119 243.314L141.92 243.584L132.725 243.026L123.617 243.142L123.171 234.412L123.669 225.591L123.381 216.771L123.613 207.947L123.74 199.123L123.22 190.302L123.332 181.478L123.429 172.654L123.632 163.935L132.722 163.665L141.917 163.852L151.111 163.504L160.306 164.163L169.498 164.081L178.692 164.115L187.884 164.13L197.078 164.205L206.273 164.055L215.468 163.572L224.663 163.766L233.862 163.568L243.057 164.021L252.184 163.901L252.596 172.65L252.296 181.471L252.469 190.295L252.12 199.115L251.967 207.939L252.135 216.763L252.589 225.584L252.315 234.408L252.398 243.385Z" stroke="black" stroke-width="5" stroke-miterlimit="10"/>
<path d="M331.436 203.426L322.342 203.655L313.148 203.887L303.953 203.891L294.758 203.816L285.567 203.362L276.372 203.449L267.177 203.538L257.986 203.711L248.791 203.718L239.596 203.651L230.401 203.179L221.202 203.606L212.008 203.782L202.599 203.752L203.112 194.711L202.94 185.89L203.161 177.07L202.914 168.246L203.041 159.422L202.745 150.601L202.786 141.777L202.464 132.953L202.756 124.073L212.004 123.901L221.199 124.088L230.394 124.241L239.585 123.848L248.78 123.878L257.974 124.44L267.166 124.365L276.361 124.466L285.555 124.122L294.75 124.223L303.945 123.844L313.14 124.29L322.339 124.118L331.354 124.316L331.713 132.949L331.215 141.77L331.616 150.59L331.799 159.414L331.594 168.238L331.68 177.059L331.758 185.883L331.859 194.711L331.436 203.426Z" fill="white"/>
<path d="M331.436 203.426L322.342 203.655L313.148 203.887L303.953 203.891L294.758 203.816L285.567 203.362L276.372 203.449L267.177 203.538L257.986 203.711L248.791 203.718L239.596 203.651L230.401 203.179L221.202 203.606L212.008 203.782L202.599 203.752L203.112 194.711L202.94 185.89L203.161 177.07L202.914 168.246L203.041 159.422L202.745 150.601L202.786 141.777L202.464 132.953L202.756 124.073L212.004 123.901L221.199 124.088L230.394 124.241L239.585 123.848L248.78 123.878L257.974 124.44L267.166 124.365L276.361 124.466L285.555 124.122L294.75 124.223L303.945 123.844L313.14 124.29L322.339 124.118L331.354 124.316L331.713 132.949L331.215 141.77L331.616 150.59L331.799 159.414L331.594 168.238L331.68 177.059L331.758 185.883L331.859 194.711L331.436 203.426Z" stroke="black" stroke-width="5" stroke-miterlimit="10"/>
<path d="M379.995 224.078L379.579 232.015L376.912 239.419L371.133 244.281L363.575 240.123L359.096 232.561L355.571 224.73L350.451 225.172L351.597 215.535L352.515 205.864L350.811 197.467L350.125 188.92L351.856 180.542L354.751 172.62L360.081 166.047L367.643 162.212L375.927 160.261L384.399 160.328L392.639 162.399L399.879 167.006L405.07 173.815L409.018 181.332L411.883 189.351L413.512 197.737L412.801 206.258L411.145 214.644L411.98 223.168L415.16 230.846L421.198 236.554L427.696 241.723L435.085 245.558L442.554 249.254L450.43 251.955L441.932 254.85L433.557 258.105L424.984 260.783L416.516 263.772L407.928 266.966L401.666 261.034L395.317 255.472L389.482 249.344L382.92 244.018L376.879 238.116" fill="white"/>
<path d="M379.995 224.078L379.579 232.015L376.912 239.419L371.133 244.281L363.575 240.123L359.096 232.561L355.571 224.73L350.451 225.172L351.597 215.535L352.515 205.864L350.811 197.467L350.125 188.92L351.856 180.542L354.751 172.62L360.081 166.047L367.643 162.212L375.927 160.261L384.399 160.328L392.639 162.399L399.879 167.006L405.07 173.815L409.018 181.332L411.883 189.351L413.512 197.737L412.801 206.258L411.145 214.644L411.98 223.168L415.16 230.846L421.198 236.554L427.696 241.723L435.085 245.558L442.554 249.254L450.43 251.955L441.932 254.85L433.557 258.105L424.984 260.783L416.516 263.772L407.928 266.966L401.666 261.034L395.317 255.472L389.482 249.344L382.92 244.018L376.879 238.116" stroke="black" stroke-width="5" stroke-miterlimit="10"/>
<path d="M350.429 185.699C350.429 185.699 361.088 178.845 367.834 189.939C374.579 201.033 373.373 209.497 373.373 209.497H377.718C377.718 209.497 380.369 199.261 386.635 198.374C392.901 197.486 394.126 212.134 386.635 214.13C396.516 221.677 398.928 225.449 398.928 225.449C398.928 225.449 404.01 223.044 411.89 222.232C411.89 222.232 411.516 217.737 412.227 207.958C412.939 198.179 412.905 181.905 400.43 167.883C387.954 153.86 361.103 159.74 354.463 172.673C349.369 182.564 350.429 185.699 350.429 185.699Z" fill="black" stroke="black" stroke-width="5" stroke-miterlimit="10"/>
<path d="M417.891 551.877L418.857 560.727L420.171 569.528L421.426 578.341L422.969 587.117L423.969 595.963L424.692 604.847L426.512 613.585L427.647 622.417L428.861 631.233L429.658 640.11L430.554 648.968L431.88 657.773L433.509 666.537L434.198 675.425L435.692 684.208L436.704 693.055L437.456 701.935L438.797 710.736L439.88 719.576L441.359 728.407L432.243 728.467L423.172 728.089L414.1 728.302L405.029 728.606L395.954 728.793L386.879 728.261L377.808 728.313L368.736 728.883L359.661 729.021L350.519 728.872L357.545 723.032L364.755 717.658L372.62 713.265L380.89 709.677L389.557 707.208L398.475 705.414L396.658 696.515L394.725 687.77L392.508 679.088L389.856 670.53L387.463 661.897L385.306 653.196L382.695 644.623L380.396 635.96L377.909 627.353L374.98 618.877L372.867 610.162L370.137 601.623L367.343 593.098L365.103 584.42L363.07 575.69L360.931 566.989L359.148 558.206L356.796 549.547L355.598 540.655L353.905 531.843L353.785 522.861L353.481 513.932L353.684 504.955L356.463 496.434L360.624 488.509L368.437 484.25L377.148 481.647L386.156 480.216L395.134 478.475L404.231 477.628L413.344 477.003L422.452 476.351L431.591 476.261L440.681 475.201L449.816 475.134L458.929 474.4L468.067 474.467L477.199 474.299L486.326 474.19L495.457 474.066L504.585 473.733L513.716 473.894L522.84 474.183" fill="white"/>
<path d="M417.891 551.877L418.857 560.727L420.171 569.528L421.426 578.341L422.969 587.117L423.969 595.963L424.692 604.847L426.512 613.585L427.647 622.417L428.861 631.233L429.658 640.11L430.554 648.968L431.88 657.773L433.509 666.537L434.198 675.425L435.692 684.208L436.704 693.055L437.456 701.935L438.797 710.736L439.88 719.576L441.359 728.407L432.243 728.467L423.172 728.089L414.1 728.302L405.029 728.606L395.954 728.793L386.879 728.261L377.808 728.313L368.736 728.883L359.661 729.021L350.519 728.872L357.545 723.032L364.755 717.658L372.62 713.265L380.89 709.677L389.557 707.208L398.475 705.414L396.658 696.515L394.725 687.77L392.508 679.088L389.856 670.53L387.463 661.897L385.306 653.196L382.695 644.623L380.396 635.96L377.909 627.353L374.98 618.877L372.867 610.162L370.137 601.623L367.343 593.098L365.103 584.42L363.07 575.69L360.931 566.989L359.148 558.206L356.796 549.547L355.598 540.655L353.905 531.843L353.785 522.861L353.481 513.932L353.684 504.955L356.463 496.434L360.624 488.509L368.437 484.25L377.148 481.647L386.156 480.216L395.134 478.475L404.231 477.628L413.344 477.003L422.452 476.351L431.591 476.261L440.681 475.201L449.816 475.134L458.929 474.4L468.067 474.467L477.199 474.299L486.326 474.19L495.457 474.066L504.585 473.733L513.716 473.894L522.84 474.183" stroke="black" stroke-width="5" stroke-miterlimit="10"/>
<path d="M432.595 420.901L392.092 438.583H353.77C353.77 438.583 370.624 419.481 421.883 412.579" fill="white"/>
<path d="M432.595 420.901L392.092 438.583H353.77C353.77 438.583 370.624 419.481 421.883 412.579" stroke="black" stroke-width="5" stroke-miterlimit="10"/>
<path d="M307.241 571.289L312.308 563.933L320.814 560.416L329.844 558.562L338.949 557.075L348.095 555.693L357.328 555.18L366.571 555.034L375.8 554.633L385.032 554.229L394.276 554.311L403.512 553.633L412.756 553.63L421.999 554.109L431.243 554.184L440.486 553.734L449.73 553.955L458.962 554.521L468.217 554.086L477.434 554.907L486.67 555.255L495.862 556.206L505.068 556.97L514.21 558.289L523.203 560.375L531.574 564.12L536.24 571.289L531.776 578.772L523.281 582.484L514.206 584.304L505.113 585.982L495.858 586.334L486.663 587.263L477.453 588.102L468.213 588.417L458.97 588.458L449.73 588.858L440.483 588.368L431.243 588.847L421.999 588.761L412.759 588.308L403.512 588.791L394.272 588.387L385.032 588.293L375.804 587.802L366.556 587.836L357.324 587.368L348.125 586.488L338.889 585.963L329.803 584.218L320.78 582.259L312.425 578.458L307.241 571.289Z" fill="black"/>
<path d="M307.241 571.289L312.308 563.933L320.814 560.416L329.844 558.562L338.949 557.075L348.095 555.693L357.328 555.18L366.571 555.034L375.8 554.633L385.032 554.229L394.276 554.311L403.512 553.633L412.756 553.63L421.999 554.109L431.243 554.184L440.486 553.734L449.73 553.955L458.962 554.521L468.217 554.086L477.434 554.907L486.67 555.255L495.862 556.206L505.068 556.97L514.21 558.289L523.203 560.375L531.574 564.12L536.24 571.289L531.776 578.772L523.281 582.484L514.206 584.304L505.113 585.982L495.858 586.334L486.663 587.263L477.453 588.102L468.213 588.417L458.97 588.458L449.73 588.858L440.483 588.368L431.243 588.847L421.999 588.761L412.759 588.308L403.512 588.791L394.272 588.387L385.032 588.293L375.804 587.802L366.556 587.836L357.324 587.368L348.125 586.488L338.889 585.963L329.803 584.218L320.78 582.259L312.425 578.458L307.241 571.289Z" stroke="black" stroke-width="5" stroke-miterlimit="10"/>
<path d="M488.341 281.131L493.337 288.675L498.139 296.311L502.633 304.139L506.517 312.289L510.293 320.488L513.379 328.971L516.72 337.357L519.577 345.919L522.394 354.507L523.948 363.432L526.162 372.178L527.66 381.077L529.581 389.904L530.499 398.89L531.825 407.826L532.75 416.811L533.188 425.834V434.868L533.866 443.883L533.858 452.92L532.993 461.928L532.735 470.95L532.289 479.969L531.664 488.981L530.409 497.928L529.45 506.835L527.285 515.524L524.263 523.932L520.323 531.906L515.27 539.195L509.188 545.742L501.206 549.749L492.944 553.135L484.067 554.349L475.127 554.397L466.195 553.91L457.79 557.57L448.973 560.034L440.029 562.042L430.909 563.027L421.808 564.248L412.621 564.233L403.452 564.409L394.276 564.544L385.1 564.315L375.935 563.794L366.785 563.087L357.624 562.461L348.496 561.465L339.391 560.304L330.26 559.319L321.211 557.757L312.069 556.836L303.069 554.989L294.031 553.405L284.829 551.839L287.649 560.229L290.469 568.555L292.383 577.154L294.93 585.563L298.084 593.787L300.649 602.192L302.784 610.728L305.286 619.147L307.777 627.574L310.754 635.852L313.44 644.219L315.556 652.762L318.095 661.17L320.784 669.537L323.503 677.893L325.829 686.373L328.256 694.819L331.241 703.096L333.47 711.606L335.972 720.029L338.923 728.486L329.788 728.156L320.814 728.164L311.84 728.699L302.863 728.179L293.889 728.576L284.915 728.819L275.937 728.86L266.96 728.857L257.982 728.377L249.004 728.418L240.135 728.404L246.776 722.703L254.375 717.853L262.151 713.272L270.536 709.928L279.181 707.366L287.829 705.208L284.994 696.965L282.582 688.418L278.956 680.309L275.686 672.073L272.731 663.706L269.162 655.59L265.697 647.429L262.124 639.316L258.739 631.125L255.33 622.941L251.626 614.881L248.431 606.608L245.158 598.372L241.618 590.241L237.97 582.147L235.244 573.697L232.334 565.323L229.394 556.967L226.296 548.656L223.787 540.146L221.581 531.558L220.304 522.779L218.671 514.063L218.341 505.187L220.33 496.561L224.247 488.786L231.397 483.617L240.352 481.894L249.3 480.336L258.278 478.887L267.312 477.79L276.383 477.044L285.488 476.823L294.567 476.288L303.638 475.531L312.743 475.527L321.814 474.61L330.912 474.329L340.024 474.793L349.111 473.887L358.216 474.385L367.313 474.314L376.407 473.67L385.504 474.01L394.489 473.823L396.931 465.029L399.182 456.063L400.887 446.98L402.227 437.834L403.272 428.646L403.838 419.403L403.681 410.133L402.774 400.901L400.86 391.833L398.958 382.758L395.714 374.069L392.13 365.515L387.448 357.514L381.965 350.061L375.875 343.267L371.178 350.968L367.234 359.091L362.354 366.676L358.092 374.627L353.403 382.327L348.032 389.594L343.571 397.444L338.17 404.672L333.005 412.055L327.702 419.343L321.945 426.276L316.095 433.115L310.23 439.969L303.353 445.793L296.17 451.179L287.964 454.718L278.993 455.377L270.027 454.497L261.132 452.999L252.18 451.583L243.536 448.894L234.892 446.261L226.304 443.422L217.712 440.598L209.206 437.519L200.738 434.339L192.46 430.68L184.131 427.163L175.764 423.736L167.591 419.867L159.269 416.216L153.827 422.56L148.089 428.572L142.632 434.89L136.006 436.313L135.842 427.388L138.066 418.755L141.482 410.616L147.557 404.242L155.231 399.92L163.756 397.474L172.625 396.916L181.535 396.669L190.322 398.223L199.198 399.054L207.906 400.934L216.558 403.043L225.173 405.283L233.727 407.759L242.319 410.099L251.053 411.86L259.712 413.991L268.611 414.305L276.522 411.74L281.773 404.47L286.039 396.59L290.705 388.938L294.383 380.747L298.949 373.031L303.087 365.091L306.803 356.938L311.095 349.069L314.762 340.896L318.964 332.975L322.582 324.78L326.387 316.664L329.249 308.15L333.271 300.21L337.373 292.323L342.268 284.892L348.017 278.101L354.616 272.157L361.616 266.753L368.83 261.547L377.096 258.243L385.25 254.741L393.778 252.255L402.403 250.078L411.22 248.917L420.067 248.135L428.898 247.254L437.782 247.176L446.651 246.708L455.513 247.277L464.007 249.839L472.356 252.884L479.839 257.682L487.097 262.798L493.764 268.67L499.577 275.39L505.293 282.154L510.869 289.049L515.877 296.367L520.244 304.09L524.783 311.697L528.948 319.521L533.188 327.33L536.701 335.48L539.529 343.904L543.087 352.046L544.447 361.346L543.656 370.627L541.184 379.698L536.244 387.728L530.102 394.815" fill="white"/>
<path d="M488.341 281.131L493.337 288.675L498.139 296.311L502.633 304.139L506.517 312.289L510.293 320.488L513.379 328.971L516.72 337.357L519.577 345.919L522.394 354.507L523.948 363.432L526.162 372.178L527.66 381.077L529.581 389.904L530.499 398.89L531.825 407.826L532.75 416.811L533.188 425.834V434.868L533.866 443.883L533.858 452.92L532.993 461.928L532.735 470.95L532.289 479.969L531.664 488.981L530.409 497.928L529.45 506.835L527.285 515.524L524.263 523.932L520.323 531.906L515.27 539.195L509.188 545.742L501.206 549.749L492.944 553.135L484.067 554.349L475.127 554.397L466.195 553.91L457.79 557.57L448.973 560.034L440.029 562.042L430.909 563.027L421.808 564.248L412.621 564.233L403.452 564.409L394.276 564.544L385.1 564.315L375.935 563.794L366.785 563.087L357.624 562.461L348.496 561.465L339.391 560.304L330.26 559.319L321.211 557.757L312.069 556.836L303.069 554.989L294.031 553.405L284.829 551.839L287.649 560.229L290.469 568.555L292.383 577.154L294.93 585.563L298.084 593.787L300.649 602.192L302.784 610.728L305.286 619.147L307.777 627.574L310.754 635.852L313.44 644.219L315.556 652.762L318.095 661.17L320.784 669.537L323.503 677.893L325.829 686.373L328.256 694.819L331.241 703.096L333.47 711.606L335.972 720.029L338.923 728.486L329.788 728.156L320.814 728.164L311.84 728.699L302.863 728.179L293.889 728.576L284.915 728.819L275.937 728.86L266.96 728.857L257.982 728.377L249.004 728.418L240.135 728.404L246.776 722.703L254.375 717.853L262.151 713.272L270.536 709.928L279.181 707.366L287.829 705.208L284.994 696.965L282.582 688.418L278.956 680.309L275.686 672.073L272.731 663.706L269.162 655.59L265.697 647.429L262.124 639.316L258.739 631.125L255.33 622.941L251.626 614.881L248.431 606.608L245.158 598.372L241.618 590.241L237.97 582.147L235.244 573.697L232.334 565.323L229.394 556.967L226.296 548.656L223.787 540.146L221.581 531.558L220.304 522.779L218.671 514.063L218.341 505.187L220.33 496.561L224.247 488.786L231.397 483.617L240.352 481.894L249.3 480.336L258.278 478.887L267.312 477.79L276.383 477.044L285.488 476.823L294.567 476.288L303.638 475.531L312.743 475.527L321.814 474.61L330.912 474.329L340.024 474.793L349.111 473.887L358.216 474.385L367.313 474.314L376.407 473.67L385.504 474.01L394.489 473.823L396.931 465.029L399.182 456.063L400.887 446.98L402.227 437.834L403.272 428.646L403.838 419.403L403.681 410.133L402.774 400.901L400.86 391.833L398.958 382.758L395.714 374.069L392.13 365.515L387.448 357.514L381.965 350.061L375.875 343.267L371.178 350.968L367.234 359.091L362.354 366.676L358.092 374.627L353.403 382.327L348.032 389.594L343.571 397.444L338.17 404.672L333.005 412.055L327.702 419.343L321.945 426.276L316.095 433.115L310.23 439.969L303.353 445.793L296.17 451.179L287.964 454.718L278.993 455.377L270.027 454.497L261.132 452.999L252.18 451.583L243.536 448.894L234.892 446.261L226.304 443.422L217.712 440.598L209.206 437.519L200.738 434.339L192.46 430.68L184.131 427.163L175.764 423.736L167.591 419.867L159.269 416.216L153.827 422.56L148.089 428.572L142.632 434.89L136.006 436.313L135.842 427.388L138.066 418.755L141.482 410.616L147.557 404.242L155.231 399.92L163.756 397.474L172.625 396.916L181.535 396.669L190.322 398.223L199.198 399.054L207.906 400.934L216.558 403.043L225.173 405.283L233.727 407.759L242.319 410.099L251.053 411.86L259.712 413.991L268.611 414.305L276.522 411.74L281.773 404.47L286.039 396.59L290.705 388.938L294.383 380.747L298.949 373.031L303.087 365.091L306.803 356.938L311.095 349.069L314.762 340.896L318.964 332.975L322.582 324.78L326.387 316.664L329.249 308.15L333.271 300.21L337.373 292.323L342.268 284.892L348.017 278.101L354.616 272.157L361.616 266.753L368.83 261.547L377.096 258.243L385.25 254.741L393.778 252.255L402.403 250.078L411.22 248.917L420.067 248.135L428.898 247.254L437.782 247.176L446.651 246.708L455.513 247.277L464.007 249.839L472.356 252.884L479.839 257.682L487.097 262.798L493.764 268.67L499.577 275.39L505.293 282.154L510.869 289.049L515.877 296.367L520.244 304.09L524.783 311.697L528.948 319.521L533.188 327.33L536.701 335.48L539.529 343.904L543.087 352.046L544.447 361.346L543.656 370.627L541.184 379.698L536.244 387.728L530.102 394.815" stroke="black" stroke-width="5" stroke-miterlimit="10"/>
<path d="M466.112 553.772L473.7 549.034L479.045 541.88" stroke="black" stroke-width="5" stroke-miterlimit="10"/>
<path d="M291.308 386.923L287.889 379.088L285.638 370.885L284.567 362.466L285.851 354.08L288.919 346.196L293.334 338.267L300.057 332.158L307.132 326.477L315.245 322.402L323.541 318.731L332.298 316.36L341.073 314.143L349.949 312.345L358.867 310.705L367.864 309.562L376.905 308.873L385.965 308.488L395.003 307.611L404.07 307.33L413.141 307.514L422.205 307.503L431.269 307.873L440.333 307.989L449.4 308.106L458.475 307.971L467.52 308.929L476.592 308.866L485.663 308.862L494.712 309.679L503.776 310.072L512.854 309.495L521.918 310.184L530.978 309.495L540.031 309.169L549.072 308.712L558.117 308.064L567.039 306.45L575.732 303.858L583.395 299.117L588.413 291.742L588.148 282.678L584.458 274.319L580.541 266.075L575.335 258.551L569.29 251.685L562.971 245.09L556.117 239.048L549.593 232.636L542.237 227.198L535.001 221.632L527.813 215.999L520.645 210.333L513.48 204.658L505.761 199.729L498.599 194.048L491.596 188.175L484.981 181.868L479.285 174.684L479.491 165.853L487.015 160.789L495.925 158.823L504.888 157.137L513.937 155.807" stroke="black" stroke-width="5" stroke-miterlimit="10"/>
<path d="M323.9 424.242C343.069 441.055 367.721 457.991 394.313 474.456C394.313 474.456 462.262 484.228 532.69 473.954" stroke="black" stroke-width="5" stroke-miterlimit="10"/>
<path d="M302.679 609.241L310.672 611.488L318.634 613.833L326.638 616.035L334.65 618.211L342.571 620.713L350.65 622.653L359.32 625.484L368.276 627.241L377.047 629.724L385.946 631.683L394.812 633.814L403.797 635.372L412.782 636.893L421.778 638.309L430.808 639.503L439.786 641.11L448.842 642.129L457.925 642.874L466.989 643.81L476.067 644.698L485.195 644.548L494.3 644.702L503.409 645.222L512.51 644.631L521.604 644.196L530.712 643.84L539.746 642.638L548.761 641.365L557.686 639.589L566.675 637.979L575.38 635.211L583.687 631.41L591.361 626.518L597.949 620.233L601.047 611.671L599.451 602.668L594.204 595.196L588.088 588.428L581.013 583.132L573.818 578.031L566.72 572.761L559.061 568.36L551.488 563.828L543.761 559.558L536.345 554.753L528.555 550.599L520.858 546.277L513.105 542.056" stroke="black" stroke-width="5" stroke-miterlimit="10"/>
<path d="M78.0356 629.889L86.9721 632.196L95.9685 634.241L104.984 636.207L113.961 638.331L123.062 639.855L132.07 641.938L141.243 643.028L150.452 643.649L159.632 644.822L168.872 644.327L177.977 642.661L184.498 636.612L184.075 627.642L178.524 620.128L171.239 614.207L163.363 609.128L155.677 603.761L149.16 597.061L146.048 588.619L151.613 581.697L160.55 579.72L169.85 579.21L179.101 580.345L188.299 581.802L197.505 583.24L206.614 585.195L215.667 587.401L224.783 589.315L233.779 591.754L242.922 593.596" stroke="black" stroke-width="5" stroke-miterlimit="10"/>
<path d="M530.21 395.125L529.922 394.968L528.937 386.073L526.982 377.339L525.413 368.53L523.233 359.855L520.783 351.26L518.686 342.552L515.367 334.233L512.547 325.892L506.843 332.926L501.131 340.005L496.098 347.604L490.195 354.541L485.026 362.039L479.367 369.159L473.674 376.256L468.269 383.578L462.786 390.833L457.393 398.159L451.981 405.189L460.689 406.17L469.659 406.871L478.551 408.339L487.521 409.051L496.506 409.631L505.386 411.23L514.36 411.931L523.296 412.98L532.21 413.425L531.323 404.287L530.461 394.893L530.21 395.125Z" fill="white"/>
<path d="M530.21 395.125L529.922 394.968L528.937 386.073L526.982 377.339L525.413 368.53L523.233 359.855L520.783 351.26L518.686 342.552L515.367 334.233L512.547 325.892L506.843 332.926L501.131 340.005L496.098 347.604L490.195 354.541L485.026 362.039L479.367 369.159L473.674 376.256L468.269 383.578L462.786 390.833L457.393 398.159L451.981 405.189L460.689 406.17L469.659 406.871L478.551 408.339L487.521 409.051L496.506 409.631L505.386 411.23L514.36 411.931L523.296 412.98L532.21 413.425L531.323 404.287L530.461 394.893L530.21 395.125Z" stroke="black" stroke-width="5" stroke-miterlimit="10"/>
<path d="M530.469 394.893L536.548 387.942L540.862 379.552L543.881 370.676L544.956 361.316L542.945 352.095L539.398 343.642L536.596 334.892L532.387 326.739L528.6 318.394L524.345 310.446L518.398 318.076L512.143 325.623L515.918 334.035L518.525 342.604L521.296 351.114L523.532 359.784L525.439 368.526L526.963 377.339L528.656 386.118L530.469 394.893Z" fill="white"/>
<path d="M530.469 394.893L536.548 387.942L540.862 379.552L543.881 370.676L544.956 361.316L542.945 352.095L539.398 343.642L536.596 334.892L532.387 326.739L528.6 318.394L524.345 310.446L518.398 318.076L512.143 325.623L515.918 334.035L518.525 342.604L521.296 351.114L523.532 359.784L525.439 368.526L526.963 377.339L528.656 386.118L530.469 394.893Z" stroke="black" stroke-width="5" stroke-miterlimit="10"/>
<path d="M529.892 394.972L531.446 404.275L532.383 413.425L541.094 414.526L549.919 415.358L558.743 416.193L567.571 417.013L576.372 418.043L585.129 419.526L593.975 420.137L602.799 420.991L611.65 421.59L620.425 422.916L629.268 423.571L638.058 424.77L646.609 425.347L644.564 416.995L642.193 408.41L640.257 399.713L637.807 391.152L636.163 382.384L633.905 373.769L631.249 365.26L629.549 356.503L627.081 347.941L625.122 339.252L623.062 330.589L620.373 322.087L618.294 313.428L616.204 304.772L614.26 296.079L611.773 287.525L609.77 278.847L607.249 270.3L605.698 261.506L603.436 252.891L601.283 244.251L599.114 235.614L596.998 226.962L594.496 218.194L589.256 225.64L583.706 232.591L578.466 239.779L572.705 246.573L567.383 253.7L562.334 261.037L556.694 267.925L551.432 275.097L545.757 281.955L540.237 288.933L534.971 296.109L529.93 303.454L524.319 310.345L528.731 318.327L532.626 326.623L536.476 334.945L540.008 343.406L542.641 352.2L545.042 361.312L544.02 370.706L540.993 379.608L535.975 387.537L529.892 394.972Z" fill="white"/>
<path d="M529.892 394.972L531.446 404.275L532.383 413.425L541.094 414.526L549.919 415.358L558.743 416.193L567.571 417.013L576.372 418.043L585.129 419.526L593.975 420.137L602.799 420.991L611.65 421.59L620.425 422.916L629.268 423.571L638.058 424.77L646.609 425.347L644.564 416.995L642.193 408.41L640.257 399.713L637.807 391.152L636.163 382.384L633.905 373.769L631.249 365.26L629.549 356.503L627.081 347.941L625.122 339.252L623.062 330.589L620.373 322.087L618.294 313.428L616.204 304.772L614.26 296.079L611.773 287.525L609.77 278.847L607.249 270.3L605.698 261.506L603.436 252.891L601.283 244.251L599.114 235.614L596.998 226.962L594.496 218.194L589.256 225.64L583.706 232.591L578.466 239.779L572.705 246.573L567.383 253.7L562.334 261.037L556.694 267.925L551.432 275.097L545.757 281.955L540.237 288.933L534.971 296.109L529.93 303.454L524.319 310.345L528.731 318.327L532.626 326.623L536.476 334.945L540.008 343.406L542.641 352.2L545.042 361.312L544.02 370.706L540.993 379.608L535.975 387.537L529.892 394.972Z" stroke="black" stroke-width="5" stroke-miterlimit="10"/>
<path d="M569.615 141.421L560.286 138.313L551.259 135.245L542.173 132.346L533.218 129.065L524.034 126.462L515.248 123.522L517.952 132.384L520.735 141.508L524.079 150.44L527.27 159.429L530.282 168.474L533.147 177.864L538.555 170.025L543.626 162.564L550.222 169.403L557.604 175.759L564.215 182.86L569.571 178.01L574.544 172.639L567.466 165.879L560.668 158.92L553.922 152.025L561.402 146.526L569.615 141.421Z" fill="black"/>
<path d="M569.615 141.421L560.286 138.313L551.259 135.245L542.173 132.346L533.218 129.065L524.034 126.462L515.248 123.522L517.952 132.384L520.735 141.508L524.079 150.44L527.27 159.429L530.282 168.474L533.147 177.864L538.555 170.025L543.626 162.564L550.222 169.403L557.604 175.759L564.215 182.86L569.571 178.01L574.544 172.639L567.466 165.879L560.668 158.92L553.922 152.025L561.402 146.526L569.615 141.421Z" stroke="black" stroke-width="5" stroke-miterlimit="10"/>
<path d="M190.547 334.012L181.217 330.904L172.19 327.836L163.104 324.937L154.149 321.652L144.965 319.053L136.179 316.113L138.883 324.975L141.666 334.098L145.014 343.031L148.201 352.02L151.213 361.065L154.078 370.455L159.49 362.616L164.557 355.155L171.157 361.994L178.539 368.35L185.149 375.451L190.502 370.601L195.475 365.226L188.397 358.469L181.599 351.511L174.853 344.615L182.333 339.117L190.547 334.012Z" fill="black"/>
<path d="M190.547 334.012L181.217 330.904L172.19 327.836L163.104 324.937L154.149 321.652L144.965 319.053L136.179 316.113L138.883 324.975L141.666 334.098L145.014 343.031L148.201 352.02L151.213 361.065L154.078 370.455L159.49 362.616L164.557 355.155L171.157 361.994L178.539 368.35L185.149 375.451L190.502 370.601L195.475 365.226L188.397 358.469L181.599 351.511L174.853 344.615L182.333 339.117L190.547 334.012Z" stroke="black" stroke-width="5" stroke-miterlimit="10"/>
<path d="M212.764 274.551L203.434 271.446L194.408 268.374L185.322 265.479L176.37 262.195L167.183 259.592L158.396 256.651L161.1 265.513L163.883 274.637L167.232 283.573L170.423 292.558L173.434 301.607L176.299 310.993L181.707 303.154L186.775 295.693L193.374 302.532L200.756 308.888L207.367 315.989L212.723 311.139L217.693 305.768L210.614 299.008L203.82 292.049L197.075 285.154L204.55 279.659L212.764 274.551Z" fill="white"/>
<path d="M212.764 274.551L203.434 271.446L194.408 268.374L185.322 265.479L176.37 262.195L167.183 259.592L158.396 256.651L161.1 265.513L163.883 274.637L167.232 283.573L170.423 292.558L173.434 301.607L176.299 310.993L181.707 303.154L186.775 295.693L193.374 302.532L200.756 308.888L207.367 315.989L212.723 311.139L217.693 305.768L210.614 299.008L203.82 292.049L197.075 285.154L204.55 279.659L212.764 274.551Z" stroke="black" stroke-width="5" stroke-miterlimit="10"/>
<path d="M436.67 302.896L427.34 299.787L418.314 296.716L409.227 293.821L400.272 290.536L391.089 287.933L382.302 284.996L385.006 293.858L387.789 302.982L391.137 311.914L394.328 320.9L397.34 329.948L400.201 339.338L405.613 331.495L410.681 324.034L417.28 330.877L424.662 337.229L431.273 344.331L436.625 339.484L441.599 334.11L434.52 327.353L427.726 320.39L420.98 313.499L428.456 308.001L436.67 302.896Z" fill="#FFC32D"/>
<path d="M434.981 298.648L425.651 295.54L416.625 292.472L407.538 289.573L398.583 286.289L389.399 283.686L380.613 280.749L383.317 289.611L386.1 298.735L389.448 307.667L392.639 316.652L395.647 325.701L398.512 335.091L403.924 327.252L408.991 319.787L415.591 326.63L422.973 332.982L429.584 340.083L434.936 335.237L439.91 329.862L432.831 323.106L426.033 316.147L419.288 309.252L426.767 303.753L434.981 298.648Z" stroke="black" stroke-width="5" stroke-miterlimit="10"/>
<path d="M331.743 705.313H287.975" stroke="black" stroke-width="5" stroke-miterlimit="10"/>
<path d="M398.347 705.313H438.277" stroke="black" stroke-width="5" stroke-miterlimit="10"/>
<path d="M173.655 396.717C173.655 396.717 159.149 401.253 159.288 416.287" stroke="black" stroke-width="5" stroke-miterlimit="10"/>
<path d="M300.672 705.373L297.188 697.1L294.391 688.549L291.009 680.242L286.982 672.189L284.065 663.691L280.701 655.369L277.649 646.93L274.008 638.717L270.514 630.451L267.162 622.125L263.978 613.728L261.173 605.192L257.72 596.904L254.356 588.578L251.435 580.087L248.094 571.757L245.431 563.176L241.937 554.888L239.184 546.334L237.952 537.543L243.753 528.221L239.701 523.532L235.221 522.007L241.424 517.513L248.735 515.326L257.566 515.067L266.349 516.075L275.177 516.738L283.859 518.468L292.66 519.367L301.361 520.985L310.121 522.202L318.968 522.749L327.743 523.805L336.507 525.097L345.361 525.277L354.197 525.21L363.01 524.831L371.778 523.925L380.126 521.202L388.463 516.509L395.744 510.277L402.04 503.015L406.516 494.516L410.171 485.674L412.654 476.441" stroke="black" stroke-width="5" stroke-miterlimit="10"/>
<path d="M425.793 492.936L435.071 493.071L444.479 493.539L453.898 494.134L463.318 493.546L472.431 492.868L469.127 500.82L464.517 508.419L459.906 516.011L454.565 523.007L444.902 525.183L435.336 527.887L425.673 530.045L416.542 524.798L407.452 519.651L412.823 513.801L418.437 507.636L422.479 500.352L425.793 492.936Z" fill="white"/>
<path d="M425.793 492.936L435.071 493.071L444.479 493.539L453.898 494.134L463.318 493.546L472.431 492.868L469.127 500.82L464.517 508.419L459.906 516.011L454.565 523.007L444.902 525.183L435.336 527.887L425.673 530.045L416.542 524.798L407.452 519.651L412.823 513.801L418.437 507.636L422.479 500.352L425.793 492.936Z" stroke="black" stroke-width="5" stroke-miterlimit="10"/>
<path d="M154.782 421.635L153.658 426.197C153.284 427.695 152.909 429.223 153.04 430.759C153.036 430.924 153.086 431.086 153.183 431.22C153.274 431.296 153.382 431.35 153.497 431.377C153.613 431.404 153.734 431.402 153.849 431.373C155.422 431.167 156.67 429.972 157.67 428.751C160.181 425.648 161.867 421.959 162.569 418.028" stroke="black" stroke-width="5" stroke-miterlimit="10"/>
</svg>
