<svg width="932" height="932" viewBox="0 0 932 932" fill="none" xmlns="http://www.w3.org/2000/svg">
<path d="M246.259 56.5889L157.517 848.789L862.98 508.026L246.259 56.5889Z" fill="#FFEAAF"/>
<path d="M124.418 156.179L108.487 164.8L111.918 171.138L127.848 162.517L131.278 168.852L115.348 177.477" stroke="black" stroke-width="5" stroke-miterlimit="10"/>
<path d="M113.549 155.126L126.083 178.284" stroke="black" stroke-width="5" stroke-miterlimit="10"/>
<path d="M380.795 137.211L365.931 137.63L366.099 143.541L380.959 143.122L381.128 149.038L366.263 149.457" stroke="black" stroke-width="5" stroke-miterlimit="10"/>
<path d="M373.223 132.417L373.831 154.022" stroke="black" stroke-width="5" stroke-miterlimit="10"/>
<path d="M827.288 693.499L813.817 687.203L811.315 692.567L824.785 698.858L822.279 704.217L808.808 697.926" stroke="black" stroke-width="5" stroke-miterlimit="10"/>
<path d="M822.671 685.818L813.524 705.399" stroke="black" stroke-width="5" stroke-miterlimit="10"/>
<path d="M106.097 715.867L92.3327 721.485L94.5678 726.964L108.332 721.342L110.571 726.822L96.8029 732.44" stroke="black" stroke-width="5" stroke-miterlimit="10"/>
<path d="M97.325 714.042L105.493 734.054" stroke="black" stroke-width="5" stroke-miterlimit="10"/>
<path d="M231.011 72.9851L207.029 74.5082L207.633 84.0526L231.619 82.5295L232.223 92.0739L208.237 93.5927" stroke="black" stroke-width="5" stroke-miterlimit="10"/>
<path d="M218.507 65.6714L220.72 100.539" stroke="black" stroke-width="5" stroke-miterlimit="10"/>
<path d="M183.388 253.016L162.116 241.828L157.663 250.294L178.935 261.478L174.487 269.943L153.215 258.755" stroke="black" stroke-width="5" stroke-miterlimit="10"/>
<path d="M176.519 240.262L160.257 271.186" stroke="black" stroke-width="5" stroke-miterlimit="10"/>
<path d="M832.966 574L812.428 561.521L807.461 569.689L828.004 582.172L823.038 590.344L802.499 577.862" stroke="black" stroke-width="5" stroke-miterlimit="10"/>
<path d="M826.9 560.844L808.756 590.702" stroke="black" stroke-width="5" stroke-miterlimit="10"/>
<path d="M539.339 66.5086L524.712 60.209L522.205 66.0297L536.832 72.3293L534.325 78.15L519.698 71.8504" stroke="black" stroke-width="5" stroke-miterlimit="10"/>
<path d="M534.144 58.4355L524.988 79.7033" stroke="black" stroke-width="5" stroke-miterlimit="10"/>
<path d="M817.092 62.8539L799.401 50.7983L794.608 57.8358L812.294 69.8957L807.5 76.9332L789.81 64.8733" stroke="black" stroke-width="5" stroke-miterlimit="10"/>
<path d="M812.307 50.8716L794.78 76.5879" stroke="black" stroke-width="5" stroke-miterlimit="10"/>
<path d="M841.993 157.452L824.233 162.681L826.313 169.749L844.073 164.52L846.157 171.583L828.397 176.817" stroke="black" stroke-width="5" stroke-miterlimit="10"/>
<path d="M831.353 154.091L838.955 179.906" stroke="black" stroke-width="5" stroke-miterlimit="10"/>
<path d="M164.817 769.413L147.502 778.716L151.204 785.603L168.519 776.304L172.217 783.191L154.906 792.493" stroke="black" stroke-width="5" stroke-miterlimit="10"/>
<path d="M153.029 768.235L166.552 793.404" stroke="black" stroke-width="5" stroke-miterlimit="10"/>
<path d="M94.8267 484.152C96.204 484.152 97.3206 483.036 97.3206 481.659C97.3206 480.281 96.204 479.165 94.8267 479.165C93.4493 479.165 92.3327 480.281 92.3327 481.659C92.3327 483.036 93.4493 484.152 94.8267 484.152Z" stroke="black" stroke-width="5" stroke-miterlimit="10"/>
<path d="M260.977 150.635C263.024 150.635 264.684 148.975 264.684 146.928C264.684 144.881 263.024 143.222 260.977 143.222C258.93 143.222 257.271 144.881 257.271 146.928C257.271 148.975 258.93 150.635 260.977 150.635Z" stroke="black" stroke-width="5" stroke-miterlimit="10"/>
<path d="M401.916 77.6407C404.488 77.6407 406.572 75.5563 406.572 72.985C406.572 70.4138 404.488 68.3293 401.916 68.3293C399.345 68.3293 397.261 70.4138 397.261 72.985C397.261 75.5563 399.345 77.6407 401.916 77.6407Z" stroke="black" stroke-width="5" stroke-miterlimit="10"/>
<path d="M749.76 118.808C752.016 118.808 753.846 116.979 753.846 114.722C753.846 112.466 752.016 110.636 749.76 110.636C747.503 110.636 745.673 112.466 745.673 114.722C745.673 116.979 747.503 118.808 749.76 118.808Z" stroke="black" stroke-width="5" stroke-miterlimit="10"/>
<path d="M671.709 56.7398C675.164 56.7398 677.965 53.9386 677.965 50.4833C677.965 47.0279 675.164 44.2268 671.709 44.2268C668.253 44.2268 665.452 47.0279 665.452 50.4833C665.452 53.9386 668.253 56.7398 671.709 56.7398Z" stroke="black" stroke-width="5" stroke-miterlimit="10"/>
<path d="M774.803 646.161C777.548 646.161 779.773 643.935 779.773 641.19C779.773 638.445 777.548 636.219 774.803 636.219C772.057 636.219 769.832 638.445 769.832 641.19C769.832 643.935 772.057 646.161 774.803 646.161Z" stroke="black" stroke-width="5" stroke-miterlimit="10"/>
<path d="M231.421 768.236C234.991 768.236 237.884 765.342 237.884 761.772C237.884 758.202 234.991 755.308 231.421 755.308C227.851 755.308 224.957 758.202 224.957 761.772C224.957 765.342 227.851 768.236 231.421 768.236Z" stroke="black" stroke-width="5" stroke-miterlimit="10"/>
<path d="M81.4421 83.4915C83.9443 83.4915 85.9727 81.4631 85.9727 78.961C85.9727 76.4588 83.9443 74.4304 81.4421 74.4304C78.94 74.4304 76.9116 76.4588 76.9116 78.961C76.9116 81.4631 78.94 83.4915 81.4421 83.4915Z" stroke="black" stroke-width="5" stroke-miterlimit="10"/>
<path d="M817.209 481.861L806.978 484.532L797.158 488.01L787.07 490.581L777.167 493.779L767.209 496.786L757.073 499.198L747.093 502.119L737.203 505.368L727.223 508.302L717.118 510.822L707.194 513.955L697.235 516.962L687.402 520.388L677.4 523.257L667.252 525.631L657.461 529.199L647.326 531.611L637.324 534.485L627.525 538.031L617.463 540.694L607.444 543.498L597.576 546.816L587.54 549.573L577.538 552.43L567.484 555.118L557.547 558.203L547.71 561.629L537.682 564.408L527.598 566.988L517.648 570.013L507.729 573.158L497.679 575.855L487.893 579.454L477.905 582.362L467.765 584.765L457.767 587.643L447.955 591.138L437.932 593.938L427.818 596.424L418.058 600.104L407.923 602.516L397.986 605.606L387.915 608.242L377.999 611.392L368.036 614.399L358.061 617.351L348.02 620.09L338.005 622.908L328.189 626.407L318.243 629.471L308.173 632.112L298.3 635.404L288.126 637.691L278.232 640.927L268.373 644.279L258.388 647.209L248.348 649.953L238.45 653.181L228.284 655.489L218.446 658.924L208.431 661.767L198.581 664.257L195.207 654.6L192.587 644.461L189.558 634.437L186.888 624.31L183.513 614.386L180.54 604.35L177.801 594.236L174.366 584.338L171.816 574.172L168.705 564.175L166.004 554.052L162.979 544.029L160.231 533.919L157.098 523.926L154.026 513.916L150.634 504L147.847 493.904L145.37 483.716L141.668 473.892L138.734 463.838L135.71 453.81L133.147 443.649L130.476 433.518L127.326 423.529L123.844 413.64L121.402 403.444L118.062 393.511L115.266 383.419L112.755 373.236L109.588 363.251L106.71 353.18L103.37 343.243L100.393 333.203L97.847 323.322L107.529 320.366L117.415 317.117L127.343 313.997L137.5 311.672L147.472 308.703L157.275 305.165L167.216 302.097L177.248 299.336L187.371 296.881L197.217 293.493L207.163 290.443L217.121 287.435L227.192 284.795L237.224 282.033L247.14 278.875L257.128 275.971L267.091 272.977L276.959 269.654L286.944 266.742L297.036 264.179L306.99 261.145L317.057 258.5L327.059 255.644L336.914 252.274L347.032 249.81L356.93 246.591L366.785 243.234L376.804 240.43L386.862 237.75L396.838 234.808L406.887 232.102L416.677 228.534L426.774 225.988L436.599 222.528L446.799 220.331L456.736 217.246L466.531 213.687L476.692 211.357L486.474 207.758L496.683 205.588L506.572 202.339L516.6 199.56L526.399 196.005L536.409 193.165L546.432 190.382L556.408 187.422L566.531 184.963L576.308 181.334L586.388 178.724L596.225 175.306L606.309 172.709L616.298 169.796L626.291 166.901L636.263 163.933L646.152 160.688L656.193 157.944L666.255 155.277L676.088 151.825L686.068 148.882L696.221 146.518L706.042 143.023L716.087 140.326L718.814 150.423L722.412 160.278L724.971 170.439L727.771 180.527L730.83 190.542L733.95 200.539L737.225 210.489L739.421 220.759L742.549 230.752L745.773 240.719L748.525 250.824L751.472 260.869L754.337 270.944L757.69 280.873L760.896 290.844L763.291 301.053L766.143 311.132L769.336 321.108L772.537 331.08L775.614 341.09L778.237 351.234L781.318 361.245L784.161 371.324L787.704 381.196L790.25 391.366L793.469 401.334L796.075 411.482L799.194 421.48L802.115 431.537L805.468 441.47L808.143 451.601L811.177 461.625L814.439 471.579L817.209 481.861Z" stroke="black" stroke-width="5" stroke-miterlimit="10"/>
<path d="M674.988 245.323L664.766 247.705L655.019 250.798L645.268 253.879L635.516 256.964L625.614 259.536L615.927 262.832L606.055 265.499L596.169 268.118L586.319 270.858L576.515 273.77L566.898 277.3L556.892 279.522L547.278 283.078L537.423 285.813L527.555 288.506L517.773 291.483L508.026 294.322L505.304 284.445L502.149 274.616L499.492 264.645L496.074 254.893L493.636 244.853L490.663 234.967L487.479 225.147L484.459 215.283L481.568 205.376L478.707 195.461L475.592 185.614L472.753 175.695L469.961 165.758L466.846 155.911L464.265 145.91L460.883 135.904L471.014 133.284L480.83 130.419L490.642 127.546L500.359 124.353L510.076 121.16L520.103 119.007L529.911 116.124L539.516 112.543L549.315 109.639L559.265 107.232L569.09 104.401L578.923 101.588L588.584 98.205L598.348 95.163L608.307 92.7769L618.123 89.9033L627.84 86.8484L630.916 96.656L633.57 106.632L636.345 116.573L639.753 126.329L642.295 136.339L645.151 146.25L648.56 156.006L651.002 166.042L653.902 175.949L657.388 185.679L659.705 195.759L663.036 205.536L666.199 215.365L669.137 225.259L672.024 235.166L674.988 245.323Z" stroke="black" stroke-width="5" stroke-miterlimit="10"/>
<path d="M865.366 831.465L855.913 833.652L845.63 834.067L835.396 835.167L825.152 836.323L814.827 835.857L804.583 837.242L794.284 837.096L784.01 837.846L773.72 837.984L763.433 838.291L753.129 837.829L742.856 838.739L732.569 838.921L722.265 838.131L711.996 839.305L701.692 838.692L691.406 838.89L681.115 839.007L670.833 839.814L660.538 839.059L650.256 839.719L639.96 839.585L629.674 840.116L619.387 840.245L609.092 839.952L598.801 840.159L588.511 839.684L578.215 839.853L567.92 840.379L557.634 839.322L547.343 839.719L537.048 840.392L526.761 839.413L516.466 840.375L506.18 839.382L495.889 839.827L485.594 839.961L475.307 839.65L465.016 839.249L454.725 839.512L444.435 839.426L434.139 839.503L423.866 838.347L413.566 838.947L403.276 838.757H392.985L382.72 837.566L372.425 837.665L362.151 836.962L351.86 836.936L341.561 837.018L331.27 836.871L320.983 836.573L310.71 835.965L300.466 834.856L290.223 833.928L279.893 833.976L270.116 831.465L279.928 829.234L290.163 828.108L300.441 827.555L310.71 826.904L320.988 826.403L331.274 826.045L341.561 825.821L351.843 825.446L362.138 825.333L372.407 824.509L382.72 825.26L392.989 824.272L403.293 824.958L413.571 824.199L423.866 824.57L434.144 823.707L444.43 823.288L454.717 823.068L465.016 823.672L475.303 823.482L485.598 823.78L495.889 823.858L506.175 823.582L516.462 823.4L526.753 823.232L537.048 823.59L547.334 822.857L557.629 823.564L567.92 822.378L578.215 822.727L588.506 823.258L598.797 822.753L609.084 823.672L619.37 823.758L629.665 823.111L639.956 823.31L650.251 822.878L660.538 823.435L670.824 823.966L681.124 823.094L691.41 823.672L701.692 824.173L711.992 823.866L722.265 824.841L732.556 824.889L742.851 824.734L753.151 824.211L763.416 825.437L773.715 825.273L783.98 826.136L794.275 826.088L804.583 825.748L814.861 826.378L825.122 827.202L835.409 827.534L845.63 828.889L855.882 829.618L865.366 831.465Z" fill="black"/>
<path d="M798.211 253.664C798.211 253.664 816.583 258 817.826 260.891C819.068 263.782 815.768 278.034 812.48 281.326C809.192 284.618 798.241 291.25 798.241 291.25L776.762 284.225" fill="white"/>
<path d="M798.211 253.664C798.211 253.664 816.583 258 817.826 260.891C819.068 263.782 815.768 278.034 812.48 281.326C809.192 284.618 798.241 291.25 798.241 291.25L776.762 284.225" stroke="black" stroke-width="5" stroke-miterlimit="10"/>
<path d="M529.165 272.075L525.782 262.038L520.444 252.826L513.036 245.172L503.871 239.787L493.766 237.142L483.384 238.303L473.115 240.115L463.087 243.049L452.995 243.696L450.126 233.457L446.54 223.209L441.626 213.652L433.535 206.584L423.771 202.119L413.217 199.914L402.585 198.865L391.971 200.052L381.615 202.477L371.359 205.54L362.082 210.964L354.462 218.489L347.619 226.73L344.012 236.805L341.543 247.131L340.995 257.78L341.966 268.446L344.956 278.728L347.192 288.769L348.827 298.926L347.895 309.217L342.859 318.204L335.257 325.147L326.532 330.622L317.898 336.21L309.942 342.777L304.173 351.312L299.867 360.597L296.889 370.509L296.242 380.847L297.407 391.12L299.625 401.23L302.805 411.115L307.267 420.487L311.426 429.984L316.047 439.291L318.826 449.336L318.118 459.765L312.181 468.537L304.186 475.436L294.9 480.554L285.856 486.072L277.106 491.979L269.452 499.345L264.77 508.872L262.172 519.115L262.582 529.669L265.624 539.787L271.134 548.84L278.668 556.343L287.531 562.289L297.459 566.168L307.646 569.193L318.071 571.398L328.69 572.222L339.326 572.399" fill="black"/>
<path d="M529.165 272.075L525.782 262.038L520.444 252.826L513.036 245.172L503.871 239.787L493.766 237.142L483.384 238.303L473.115 240.115L463.087 243.049L452.995 243.696L450.126 233.457L446.54 223.209L441.626 213.652L433.535 206.584L423.771 202.119L413.217 199.914L402.585 198.865L391.971 200.052L381.615 202.477L371.359 205.54L362.082 210.964L354.462 218.489L347.619 226.73L344.012 236.805L341.543 247.131L340.995 257.78L341.966 268.446L344.956 278.728L347.192 288.769L348.827 298.926L347.895 309.217L342.859 318.204L335.257 325.147L326.532 330.622L317.898 336.21L309.942 342.777L304.173 351.312L299.867 360.597L296.889 370.509L296.242 380.847L297.407 391.12L299.625 401.23L302.805 411.115L307.267 420.487L311.426 429.984L316.047 439.291L318.826 449.336L318.118 459.765L312.181 468.537L304.186 475.436L294.9 480.554L285.856 486.072L277.106 491.979L269.452 499.345L264.77 508.872L262.172 519.115L262.582 529.669L265.624 539.787L271.134 548.84L278.668 556.343L287.531 562.289L297.459 566.168L307.646 569.193L318.071 571.398L328.69 572.222L339.326 572.399" stroke="black" stroke-width="5" stroke-miterlimit="10"/>
<path d="M467.342 368.873L477.339 366.871L487.276 364.692L497.244 362.643L507.181 360.412L516.988 357.681L526.619 354.35L536.569 352.084L546.13 348.559L555.925 345.763L565.487 342.251L575.277 339.416L584.722 335.585L594.456 332.564L603.91 328.771L613.593 325.587L623.158 322.101L632.604 318.286L642.023 314.403L651.61 310.96L661.086 307.232L670.57 303.517L680.019 299.711L689.395 295.742L698.81 291.867L708.186 287.897L717.64 284.113L726.891 279.854L736.366 276.118L746.083 271.919L747.757 281.593L749.544 291.25L751.166 300.937L753.142 310.671L743.581 315.326L733.747 319.132L724.147 323.447L714.671 328.038L705.183 332.594L695.691 337.146L685.999 341.267L676.645 346.117L667.135 350.626L657.25 354.324L647.943 359.286L638.157 363.195L628.677 367.777L619.31 372.601L609.774 377.059L599.884 380.743L590.387 385.287L580.765 389.559L571.204 393.964L561.953 399.042L552.404 403.474L542.696 407.556L533.1 411.892L523.508 416.233L513.903 420.552L504.527 425.359" fill="white"/>
<path d="M467.342 368.873L477.339 366.871L487.276 364.692L497.244 362.643L507.181 360.412L516.988 357.681L526.619 354.35L536.569 352.084L546.13 348.559L555.925 345.763L565.487 342.251L575.277 339.416L584.722 335.585L594.456 332.564L603.91 328.771L613.593 325.587L623.158 322.101L632.604 318.286L642.023 314.403L651.61 310.96L661.086 307.232L670.57 303.517L680.019 299.711L689.395 295.742L698.81 291.867L708.186 287.897L717.64 284.113L726.891 279.854L736.366 276.118L746.083 271.919L747.757 281.593L749.544 291.25L751.166 300.937L753.142 310.671L743.581 315.326L733.747 319.132L724.147 323.447L714.671 328.038L705.183 332.594L695.691 337.146L685.999 341.267L676.645 346.117L667.135 350.626L657.25 354.324L647.943 359.286L638.157 363.195L628.677 367.777L619.31 372.601L609.774 377.059L599.884 380.743L590.387 385.287L580.765 389.559L571.204 393.964L561.953 399.042L552.404 403.474L542.696 407.556L533.1 411.892L523.508 416.233L513.903 420.552L504.527 425.359" stroke="black" stroke-width="5" stroke-miterlimit="10"/>
<path d="M352.529 802.521L349.888 812.32L344.469 820.764L336.008 826.132L326.226 828.354L316.392 826.257L307.823 820.928L302.218 812.467L299.875 802.521L302.162 792.554L307.689 783.985L316.276 778.496L326.226 776.697L336.284 778.237L344.78 783.967L349.875 792.726L352.529 802.521Z" fill="#FFC32D"/>
<path d="M690.996 802.521L688.964 812.527L683.454 821.17L674.621 826.214L664.809 828.047L654.734 826.839L646.575 820.755L640.694 812.51L638.446 802.521L640.444 792.429L646.225 783.937L654.95 778.72L664.809 776.667L674.746 778.53L683.303 784.023L688.99 792.506L690.996 802.521Z" fill="#FFC32D"/>
<path d="M346.117 803.591L343.476 813.39L338.061 821.834L329.596 827.197L319.818 829.424L309.985 827.327L301.411 821.994L295.811 813.532L293.468 803.591L295.755 793.624L301.282 785.055L309.864 779.562L319.818 777.767L329.876 779.307L338.372 785.033L343.468 793.792L346.117 803.591Z" stroke="black" stroke-width="5" stroke-miterlimit="10"/>
<path d="M684.584 803.591L682.552 813.593L677.046 822.24L668.214 827.284L658.398 829.113L648.327 827.905L640.163 821.825L634.282 813.58L632.038 803.591L634.036 793.499L639.814 785.007L648.543 779.786L658.398 777.732L668.335 779.601L676.895 785.093L682.578 793.572L684.584 803.591Z" stroke="black" stroke-width="5" stroke-miterlimit="10"/>
<path d="M206.032 462.272L216.28 462.091L226.532 462.216L236.784 462.608L247.04 461.862L257.292 461.853L267.544 462.095L277.801 461.996L288.053 462.267H298.27L298.723 472.718L299.163 483.212L299.211 493.718L299.664 504.208L300.635 514.68L300.898 525.177L301.545 535.662L301.373 546.178L302.477 556.645L302.71 567.143L303.245 577.633L303.819 588.118L304.285 598.611L304.052 609.131L304.755 619.616L305.554 630.092L305.976 640.586L306.365 651.084L306.913 661.573L307.15 672.075L307.379 682.573L308.091 693.054L308.457 703.552L308.263 714.071L309.083 724.552L309.825 735.033L310.162 745.535L310.412 756.037L310.723 766.613L321.203 766.401L331.606 766.298L342.014 766.138L352.421 766.263L362.824 766.643L373.231 766.354L383.639 766.143L394.042 766.816L404.449 766.453L414.856 766.79L425.264 766.682L435.671 766.389L446.074 766.837L456.481 766.406L466.889 766.194L477.296 766.859L487.704 766.367L498.111 766.401L508.518 766.872L518.926 766.401L529.333 766.803L539.74 766.462L550.148 766.937L560.555 766.734L570.962 766.82L581.369 766.613L591.777 766.488L602.188 766.363L612.596 766.143L623.003 766.622L633.415 766.561L643.826 766.578L654.238 766.328" stroke="black" stroke-width="5" stroke-miterlimit="10"/>
<path d="M516.224 672.507C516.224 672.507 612.712 538.592 651.041 503.051C680.062 476.14 761.565 437.332 809.127 415.948L799.376 360.529L799.302 360.671C799.302 360.671 662.622 398.136 605.476 443.175C563.907 475.937 457.25 600.821 457.25 600.821" fill="#FFC32D"/>
<path d="M511.953 668.766C511.953 668.766 608.436 534.856 646.765 499.31C675.791 472.399 757.302 433.595 804.855 412.203L795.1 356.779L795.031 356.926C795.031 356.926 658.346 394.374 601.2 439.429C559.631 472.191 452.978 597.075 452.978 597.075" stroke="black" stroke-width="5" stroke-miterlimit="10"/>
<path d="M750.683 433.233C662.661 404.811 353.185 689.3 353.185 689.3C353.185 689.3 399.353 793.779 531.503 658.454C608.738 579.35 696.696 496.1 698.085 518.994C699.902 548.987 689.693 616.358 683.126 655.597L737.626 678.289C738.571 673.78 750.605 616.363 762.544 561.318C776.265 498.05 783.484 443.826 750.683 433.233Z" fill="#FFC32D"/>
<path d="M825.588 295.746L821.303 304.617L816.566 313.126L812.859 322.148L808.178 330.683L803.475 339.209L799.816 348.257L794.884 356.753L796.722 367.92L798.97 378.953L801.373 389.956L803.306 401.045L805.179 412.03L813.873 408.501L822.632 404.212L831.573 400.341L840.47 396.557L839.137 386.486L837.98 376.368L835.896 366.388L834.179 356.352L833.424 346.169L831.223 336.202L830.477 326.023L828.669 315.995L827.18 305.925L825.588 295.746Z" fill="white"/>
<path d="M825.588 295.746L821.303 304.617L816.566 313.126L812.859 322.148L808.178 330.683L803.475 339.209L799.816 348.257L794.884 356.753L796.722 367.92L798.97 378.953L801.373 389.956L803.306 401.045L805.179 412.03L813.873 408.501L822.632 404.212L831.573 400.341L840.47 396.557L839.137 386.486L837.98 376.368L835.896 366.388L834.179 356.352L833.424 346.169L831.223 336.202L830.477 326.023L828.669 315.995L827.18 305.925L825.588 295.746Z" stroke="black" stroke-width="5" stroke-miterlimit="10"/>
<path d="M673.918 681.538L681.732 687.742L690.09 693.356L698.288 699.194L706.581 704.898L714.788 710.727L722.939 716.634L731.633 721.769L739.809 727.642L747.831 733.743L756.145 739.296L752.659 730.235L749.539 720.962L746.433 711.685L743.218 702.447L740.198 693.145L736.802 683.967L733.398 674.798L733.225 674.841L724.384 670.492L715.116 667.161L706.223 662.919L696.877 659.769L687.907 655.722L678.846 652.249L677.404 661.879L675.614 671.847L673.918 681.538Z" fill="white"/>
<path d="M673.918 681.538L681.732 687.742L690.09 693.356L698.288 699.194L706.581 704.898L714.788 710.727L722.939 716.634L731.633 721.769L739.809 727.642L747.831 733.743L756.145 739.296L752.659 730.235L749.539 720.962L746.433 711.685L743.218 702.447L740.198 693.145L736.802 683.967L733.398 674.798L733.225 674.841L724.384 670.492L715.116 667.161L706.223 662.919L696.877 659.769L687.907 655.722L678.846 652.249L677.404 661.879L675.614 671.847L673.918 681.538Z" stroke="black" stroke-width="5" stroke-miterlimit="10"/>
<path d="M746.506 429.207L736.155 427.412L725.674 427.676L715.357 429.488L705.127 431.731L695.177 435.024L685.598 439.282L675.851 443.084L666.531 447.856L656.909 452.02L647.602 456.826L638.467 461.948L629.54 467.432L620.544 472.783L611.578 478.193L602.806 483.911L594.159 489.813L585.408 495.561L576.99 501.791L568.265 507.582L559.731 513.64L551.136 519.616L542.963 526.174L534.17 531.891L526.075 538.545L517.691 544.81L509.316 551.092L501.209 557.724L492.713 563.851L484.709 570.608L476.187 576.718L468.162 583.445L460.123 590.159L451.714 596.411L444.115 603.655L436.003 610.274L427.965 616.975L419.693 623.413L411.633 630.092L403.655 636.875L395.867 643.874L388.066 650.855L380.355 657.936L372.097 664.391L364.58 671.687L356.585 678.444L349.245 685.619L353.987 694.486L360.736 702.21L368.023 709.39L376.308 715.435L385.589 719.81L395.349 723.076L405.614 723.711L415.883 723.948L425.95 721.903L436.016 719.789L445.513 715.836L454.846 711.56L463.709 706.378L472.39 700.92L480.977 695.302L489.188 689.136L497.002 682.478L504.937 675.967L512.505 669.029L519.806 661.81L527.499 654.976L534.614 647.679L541.522 640.18L548.909 633.156L555.662 625.497L563.105 618.524L570.436 611.443L577.749 604.346L584.946 597.123L592.372 590.141L599.833 583.199L606.827 575.764L614.244 568.77L621.73 561.849L629.415 555.157L636.893 548.219L645.03 542.053L652.56 535.183L660.313 528.56L668.542 522.541L677.176 517.135L685.943 511.901L694.034 515.245L694.409 525.842L693.283 536.396L692.653 546.95L691.566 557.474L690.586 568.006L689.313 578.513L688.036 589.015L687.117 599.578L685.275 610.007L683.894 620.505L682.41 630.985L680.558 641.414L678.638 652.119L687.799 655.977L696.981 659.515L706.257 662.824L715.03 667.359L724.388 670.487L733.454 674.224L735.326 664.779L737.285 655.01L739.438 645.28L741.186 635.464L743.525 625.773L745.643 616.034L748.124 606.374L750.105 596.605L752.271 586.875L753.729 576.994L756.542 567.402L758.178 557.56L760.741 547.209L762.423 536.681L764.766 526.282L766.186 515.719L767.601 505.165L768.732 494.581L769.599 483.975L769.81 473.326L768.835 462.729L767.045 452.227L762.95 442.342L755.641 434.618L746.506 429.207Z" stroke="black" stroke-width="5" stroke-miterlimit="10"/>
<path d="M490.232 325.747L496.73 332.573L504.458 337.975L512.617 342.527L521.609 343.891L528.461 337.423L531.369 328.163L532.798 318.588L533.095 308.69L539.693 307.206L535.913 295.625L533.169 284.01L530.217 274.038L524.906 264.981L516.337 258.876L506.274 255.653L508.648 266.271L508.907 277.097L506.076 287.578L500.631 296.919L494.012 305.42L486.487 313.152L479.225 321.186L471.743 328.957L466.885 338.536L465.344 348.356L461.219 357.422L456.197 366.026L449.712 373.762L459.221 374.983L468.485 377.197L477.844 378.897L487.173 380.787L496.54 382.081L498.741 371.32L500.38 360.317L502.598 349.422L505.239 338.614" fill="white"/>
<path d="M490.232 325.747L496.73 332.573L504.458 337.975L512.617 342.527L521.609 343.891L528.461 337.423L531.369 328.163L532.798 318.588L533.095 308.69L539.693 307.206L535.913 295.625L533.169 284.01L530.217 274.038L524.906 264.981L516.337 258.876L506.274 255.653L508.648 266.271L508.907 277.097L506.076 287.578L500.631 296.919L494.012 305.42L486.487 313.152L479.225 321.186L471.743 328.957L466.885 338.536L465.344 348.356L461.219 357.422L456.197 366.026L449.712 373.762L459.221 374.983L468.485 377.197L477.844 378.897L487.173 380.787L496.54 382.081L498.741 371.32L500.38 360.317L502.598 349.422L505.239 338.614" stroke="black" stroke-width="5" stroke-miterlimit="10"/>
<path d="M453.034 354.889L463.342 354.043L473.633 355.152L483.415 358.583L492.07 364.274L499.427 371.536L505.947 379.639L510.257 389.106L513.653 398.918L515.543 409.161L514.895 419.585L511.703 428.681L507.651 437.436L501.11 444.529L493.809 450.799L487 457.638L479.967 464.24L473.654 472.451L467.726 480.942L463.601 490.435L459.446 499.945L457.746 510.179L457.09 520.479L456.65 530.834L458.527 541.026L460.878 551.084L463.722 561.047L468.36 570.311L473.43 579.557L465.15 585.96L457.129 592.273L449.604 599.194L441.496 605.399L433.902 612.229L425.993 618.68L418.192 625.251L409.972 631.339L402.404 638.196L394.413 644.556L387.134 651.74L379.492 658.51L371.419 664.788L363.976 671.786L356.486 678.72L348.848 685.896L344.301 676.192L340.357 666.531L336.517 656.831L333.117 646.959L330.269 636.905L328.426 626.623L326.528 616.363L324.884 606.042L323.823 595.639L323.961 585.175L323.408 574.725L323.792 564.274L324.828 553.871L326.196 543.511L327.986 533.229L329.561 522.904L331.939 512.738L334.454 502.602L337.561 492.635L340.495 482.612L344.478 472.951L347.796 463.027L352.482 453.677L357.275 444.404L361.905 435.045L366.841 425.825L372.921 417.312L378.983 408.816L385.524 400.687L392.217 392.691L399.323 385.045L407.116 378.103L415.189 371.484L423.775 365.512L432.974 360.503L442.791 356.861L453.034 354.889Z" fill="white"/>
<path d="M453.034 354.889L463.342 354.043L473.633 355.152L483.415 358.583L492.07 364.274L499.427 371.536L505.947 379.639L510.257 389.106L513.653 398.918L515.543 409.161L514.895 419.585L511.703 428.681L507.651 437.436L501.11 444.529L493.809 450.799L487 457.638L479.967 464.24L473.654 472.451L467.726 480.942L463.601 490.435L459.446 499.945L457.746 510.179L457.09 520.479L456.65 530.834L458.527 541.026L460.878 551.084L463.722 561.047L468.36 570.311L473.43 579.557L465.15 585.96L457.129 592.273L449.604 599.194L441.496 605.399L433.902 612.229L425.993 618.68L418.192 625.251L409.972 631.339L402.404 638.196L394.413 644.556L387.134 651.74L379.492 658.51L371.419 664.788L363.976 671.786L356.486 678.72L348.848 685.896L344.301 676.192L340.357 666.531L336.517 656.831L333.117 646.959L330.269 636.905L328.426 626.623L326.528 616.363L324.884 606.042L323.823 595.639L323.961 585.175L323.408 574.725L323.792 564.274L324.828 553.871L326.196 543.511L327.986 533.229L329.561 522.904L331.939 512.738L334.454 502.602L337.561 492.635L340.495 482.612L344.478 472.951L347.796 463.027L352.482 453.677L357.275 444.404L361.905 435.045L366.841 425.825L372.921 417.312L378.983 408.816L385.524 400.687L392.217 392.691L399.323 385.045L407.116 378.103L415.189 371.484L423.775 365.512L432.974 360.503L442.791 356.861L453.034 354.889Z" stroke="black" stroke-width="5" stroke-miterlimit="10"/>
<path d="M459.057 353.94L449.03 355.01L439.278 357.573L429.561 360.192L419.875 363.001L410.481 366.668L401.179 370.556L391.94 374.577L382.711 378.62L373.512 382.724L364.136 386.422L354.505 389.39L344.663 391.781L334.912 394.568L324.957 396.501L314.891 397.713L304.88 399.237L294.771 399.789L284.674 400.384L274.625 399.746L273.503 389.52L274.435 378.983L276.942 368.692L278.439 358.203L281.49 348.05L283.345 337.621L286.404 327.481L289.231 317.29L291.5 306.951L294.693 296.859L297.217 286.585L300.372 276.122L291.392 273.896L282.37 271.816L273.65 268.675L264.576 266.776L261.202 275.859L257.4 285.205L253.314 294.447L249.897 303.944L246.717 313.527L243.364 323.041L239.774 332.486L237.224 342.268L233.928 351.812L231.421 361.59L228.538 371.264L225.639 380.937L223.343 390.775L221.639 400.73L220.017 410.697L219.62 420.789L220.651 430.787L227.71 438.109L237.729 441.431L248.041 443.843L258.578 444.905L269.154 445.241L279.716 446.039L290.292 445.435L300.881 445.759L311.439 444.974L322.01 444.443L332.482 442.842L342.963 441.457L353.534 440.676L363.946 438.773L374.276 436.478L384.679 434.588L394.978 432.172L405.213 429.475L415.102 425.699L425.251 422.636" fill="white"/>
<path d="M459.057 353.94L449.03 355.01L439.278 357.573L429.561 360.192L419.875 363.001L410.481 366.668L401.179 370.556L391.94 374.577L382.711 378.62L373.512 382.724L364.136 386.422L354.505 389.39L344.663 391.781L334.912 394.568L324.957 396.501L314.891 397.713L304.88 399.237L294.771 399.789L284.674 400.384L274.625 399.746L273.503 389.52L274.435 378.983L276.942 368.692L278.439 358.203L281.49 348.05L283.345 337.621L286.404 327.481L289.231 317.29L291.5 306.951L294.693 296.859L297.217 286.585L300.372 276.122L291.392 273.896L282.37 271.816L273.65 268.675L264.576 266.776L261.202 275.859L257.4 285.205L253.314 294.447L249.897 303.944L246.717 313.527L243.364 323.041L239.774 332.486L237.224 342.268L233.928 351.812L231.421 361.59L228.538 371.264L225.639 380.937L223.343 390.775L221.639 400.73L220.017 410.697L219.62 420.789L220.651 430.787L227.71 438.109L237.729 441.431L248.041 443.843L258.578 444.905L269.154 445.241L279.716 446.039L290.292 445.435L300.881 445.759L311.439 444.974L322.01 444.443L332.482 442.842L342.963 441.457L353.534 440.676L363.946 438.773L374.276 436.478L384.679 434.588L394.978 432.172L405.213 429.475L415.102 425.699L425.251 422.636" stroke="black" stroke-width="5" stroke-miterlimit="10"/>
<path d="M314.865 515.387L315.875 526.049L316.345 536.595L317.13 547.118L318.308 557.616L319.016 568.145L319.352 578.703L320.707 589.184L321.566 599.703L321.915 610.261L322.55 620.798L323.602 631.3L324.56 641.811L324.94 652.365L326.135 662.859L326.938 673.383L327.205 683.95L328.599 694.431L328.707 705.006L330.101 715.487L330.398 726.282L340.892 725.998L351.148 726.084L361.409 726.347L371.665 725.989L381.922 726.088L392.182 725.64L402.443 726.274L412.699 725.696L422.96 725.812L433.216 726.421L443.477 725.95L453.737 726.205L463.998 726.153L474.254 725.726L484.515 725.657L494.775 726.058L505.032 726.209L515.292 726.252L525.553 725.786L535.814 726.114L546.07 726.045L556.331 725.903L566.591 726.049L576.852 725.894L587.112 726.295L597.373 726.446L607.638 726.386L617.791 725.877L621.32 716.471L625.066 707.03L627.818 697.231L631.231 687.665L635.184 678.297L638.528 668.71L641.337 658.928L645.41 649.6L648.37 639.874L651.787 630.312L655.619 620.897L658.984 611.319L662.337 601.731L665.733 592.161L668.637 582.418L672.015 572.839L675.648 563.351L679.355 553.893L682.336 544.171L686.327 534.813L689.663 525.216L692.597 515.638L682.25 515.823L671.761 515.103L661.267 515.124L650.778 515.953L640.288 515.422L629.799 515.456L619.305 515.12L608.816 515.525L598.322 515.771L587.833 515.862L577.339 515.754L566.85 515.215L556.361 515.499L545.867 515.711L535.374 515.422L524.884 515.711L514.391 515.245L503.901 515.927L493.408 515.948L482.914 515.448L472.42 515.422L461.931 515.379L451.437 515.81L440.944 515.836L430.45 515.625L419.957 515.569L409.467 515.31L398.974 515.814L388.48 515.219L377.991 515.646L367.497 515.219L356.999 515.197L346.506 515.845L336.012 515.745L325.518 515.163L314.865 515.387Z" stroke="black" stroke-width="5" stroke-miterlimit="10"/>
<path d="M807.423 257.184C823.124 252.227 849.229 235.899 847.162 230.044C846.424 227.947 745.673 271.997 745.673 271.997L752.344 307.215L767.446 295.871C767.446 295.871 787.756 302.14 804.864 295.871C821.972 289.602 818.542 269.594 812.346 269.594C806.15 269.594 807.927 283.833 800.903 284.234C793.878 284.635 790.163 272.001 790.163 272.001L807.423 257.184Z" fill="white" stroke="black" stroke-width="5" stroke-miterlimit="10"/>
<path d="M264.688 266.384C264.688 266.384 273.935 209.903 283.738 207.948C293.541 205.993 289.093 210.131 297.325 208.966C305.558 207.801 306.041 213.657 313.174 213.488C318.968 213.35 320.021 220.474 325.147 224.172C334.139 230.644 322.653 253.97 300.272 276.463L264.688 266.384Z" fill="white" stroke="black" stroke-width="5" stroke-miterlimit="10"/>
<path d="M282.366 214.679C282.366 214.679 269.611 252.878 285.106 245.556" stroke="black" stroke-width="5" stroke-miterlimit="10"/>
<path d="M290.926 213.833C290.926 213.833 279.734 250.6 288.23 250.604C296.725 250.609 303.992 217.104 303.992 217.104" stroke="black" stroke-width="5" stroke-miterlimit="10"/>
<path d="M300.937 228.935C300.937 228.935 293.908 251.196 299.642 251.592C305.377 251.989 317.255 222.411 317.255 222.411" stroke="black" stroke-width="5" stroke-miterlimit="10"/>
<path d="M314.257 229.444C314.257 229.444 305.161 247.998 307.452 251.799C309.743 255.601 324.88 235.403 324.88 235.403" stroke="black" stroke-width="5" stroke-miterlimit="10"/>
<path d="M143.774 548.452C143.774 548.452 249.344 248.697 291.535 252.304C333.725 255.911 325.428 566.496 325.428 566.496" stroke="black" stroke-width="5" stroke-miterlimit="10"/>
<path d="M299.185 273.904C299.185 273.904 321.726 265.059 324.211 260.226C326.696 255.394 320.561 245.073 312.073 241.802C303.586 238.531 307.685 246.298 312.073 256.17C300.579 252.766 286.077 257.068 286.077 257.068" fill="white"/>
<path d="M299.185 273.904C299.185 273.904 321.726 265.059 324.211 260.226C326.696 255.394 320.561 245.073 312.073 241.802C303.586 238.531 307.685 246.298 312.073 256.17C300.579 252.766 286.077 257.068 286.077 257.068" stroke="black" stroke-width="5" stroke-miterlimit="10"/>
<path d="M330.748 714.132L320.573 713.084L310.585 710.948L300.479 709.683L290.361 708.484L280.221 707.474L270.159 705.878L260.114 704.152L249.957 703.241L239.943 701.283L229.777 700.45L219.736 698.672L209.683 697.045L199.573 695.781L189.489 694.349L179.406 692.916L169.253 691.962L159.221 690.129L149.085 689.05L138.98 687.76L128.94 685.991L118.873 684.42L109.053 683.19L109.803 673.241L111.465 663.127L112.668 652.944L114.494 642.847L115.426 632.63L116.875 622.481L118.213 612.32L119.758 602.188L121.281 592.049L122.972 581.935L123.995 571.726L125.345 561.564L126.769 551.412L128.18 541.056L138.398 542.955L148.55 543.895L158.565 545.824L168.757 546.489L178.819 548.081L188.898 549.552L198.956 551.17L209.092 552.249L219.158 553.828L229.272 555.04L239.386 556.249L249.396 558.238L259.549 559.174L269.581 560.978L279.742 561.862L289.787 563.592L299.871 565.029L310.019 566.013L320.056 567.808L330.152 569.176L340.258 570.496L350.458 571.842L348.628 582.038L347.545 592.238L346.091 602.383L344.978 612.579L342.989 622.649L342.247 632.893L340.542 643.007L339.442 653.203L337.746 663.316L336.724 673.521L335.274 683.669L333.544 693.779L332.465 703.979L330.748 714.132Z" fill="#FFC32D"/>
<path d="M796.476 266.578C796.476 266.578 802.361 270.927 801.283 272.459C800.204 273.99 796.476 272.459 796.476 272.459" fill="white"/>
<path d="M796.476 266.578C796.476 266.578 802.361 270.927 801.283 272.459C800.204 273.99 796.476 272.459 796.476 272.459" stroke="black" stroke-width="5" stroke-miterlimit="10"/>
</svg>
