<svg width="100" height="100" viewBox="0 0 100 100" fill="none" xmlns="http://www.w3.org/2000/svg">
<path d="M32.8992 45.9428C36.7762 45.9428 39.9192 42.7999 39.9192 38.9229C39.9192 35.0459 36.7762 31.9031 32.8992 31.9031C29.0222 31.9031 25.8793 35.0459 25.8793 38.9229C25.8793 42.7999 29.0222 45.9428 32.8992 45.9428Z" fill="black"/>
<path d="M61.9605 38.4754C65.7617 38.4754 68.8433 35.394 68.8433 31.5927C68.8433 27.7915 65.7617 24.7101 61.9605 24.7101C58.1593 24.7101 55.0778 27.7915 55.0778 31.5927C55.0778 35.394 58.1593 38.4754 61.9605 38.4754Z" fill="black"/>
<path fill-rule="evenodd" clip-rule="evenodd" d="M94.6786 31.4698C75.9099 66.3698 38.4175 80.5585 3.59532 60.9107C2.43608 60.2565 0.966034 60.6655 0.311788 61.8104C-0.342457 62.9758 0.0664902 64.4478 1.22573 65.1021C38.5505 86.181 78.8049 71.1539 98.923 33.7597C99.5527 32.5943 99.1132 31.1221 97.9416 30.4883C96.7701 29.8749 95.3083 30.3045 94.6786 31.4698Z" fill="black"/>
</svg>
