<svg width="398" height="70" viewBox="0 0 398 70" fill="none" xmlns="http://www.w3.org/2000/svg">
<path fill-rule="evenodd" clip-rule="evenodd" d="M147.705 39.287C145.263 40.0706 142.835 40.8947 140.421 41.7623C139.542 42.0778 138.986 43.235 139.177 44.3457L139.188 44.3893C126.183 45.2957 113.177 46.3613 100.175 47.5903C81.3922 49.3665 62.4796 51.7203 43.7349 54.8723C25.2107 57.9871 20.0938 58.8049 4.12204 63.3016C3.66528 63.4302 2.78818 63.4651 2.31302 63.6571C1.86117 63.8394 1.53459 64.1353 1.32307 64.4198C1.05221 64.7805 0.892616 65.1887 0.819911 65.6306C0.742727 66.1121 0.751941 66.6955 1.05902 67.333C1.92549 69.1223 3.37285 69.5561 5.15708 69.0853C6.69227 68.68 8.56295 67.4133 10.0138 67.2098C34.1658 63.8249 58.306 60.197 82.4597 56.8569C119.436 51.7439 156.267 48.411 193.092 45.7143C231.779 44.3099 270.422 44.2687 308.974 45.4879C334.082 46.2806 359.118 48.0399 384.183 49.4286C384.161 49.5715 384.155 49.7198 384.158 49.8708C384.19 51.0197 384.948 51.8603 385.846 51.7476C386.756 51.6332 394.868 50.951 396.372 50.4067C397.233 50.0948 397.581 49.4001 397.697 49.1042C398.014 48.2927 398.047 47.4258 397.392 46.6315C397.262 46.4793 397.019 46.2292 396.567 46.0836C396.181 45.9555 395.221 45.8159 393.472 45.7285C365.398 44.2943 337.37 42.1957 309.254 41.3045C296.701 40.9098 284.139 40.6451 271.563 40.5221C288.655 39.4235 305.755 38.2861 322.884 36.997C323.621 36.9443 323.982 36.7734 324.049 36.734C324.998 36.1679 325.082 35.2109 325.074 34.6712C325.073 34.4785 324.977 32.892 323.602 32.7341C322.797 32.6412 316.971 32.6634 314.73 32.6175C303.964 32.3844 304.213 32.4899 293.197 32.3708C268.972 32.113 244.773 32.3269 220.507 32.7241C210.832 32.883 201.156 33.1009 191.476 33.3841C219.44 29.0032 247.921 27.7707 275.072 26.1017C289.078 25.2411 303.086 24.4922 317.084 24.0571C323.354 23.8624 329.619 23.803 335.887 23.6486C337.835 23.6004 339.775 23.6109 341.72 23.5778C341.951 23.5735 344.97 23.4616 345.465 23.4241C346.763 23.3261 347.09 21.8283 347.103 21.7684C347.164 21.4865 347.416 19.4802 345.811 19.249C322.613 15.9079 298.184 18.1136 274.681 18.5094C233.545 19.2018 192.27 21.4414 151.08 25.0445C132.862 26.638 114.687 29.0174 96.4788 31.3907C87.3851 32.5761 78.2665 33.8077 69.2386 36.074C68.3329 36.3016 66.2846 36.5888 65.2886 36.855C64.7819 36.9908 64.4191 37.1842 64.2522 37.3124C63.5211 37.8692 63.3629 38.6443 63.3411 39.1836C63.3261 39.5877 63.3658 41.006 64.8431 41.3695C85.9524 46.5717 109.586 41.4482 131.147 40.1859C136.666 39.8627 142.184 39.5636 147.705 39.287ZM165.679 38.4674C159.261 40.027 152.902 41.8186 146.626 43.889C162.151 42.8796 177.672 42.0968 193.194 41.5338C218.821 39.6572 244.441 38.0878 270.093 36.4413C253.527 36.4485 236.952 36.6345 220.348 36.9067C202.136 37.2049 183.91 37.7151 165.679 38.4674ZM254.642 23.1462C220.154 24.1396 185.599 26.1994 151.105 29.217C132.919 30.8079 114.782 33.1831 96.6091 35.5519C89.4583 36.484 82.2877 37.4419 75.1629 38.9229C93.4595 40.9506 113.071 37.0688 131.199 36.0078C142.648 35.3376 154.101 34.769 165.549 34.296C194.767 27.2375 225.193 24.9318 254.642 23.1462Z" fill="#FFC32D"/>
</svg>
