<svg width="245" height="30" viewBox="0 0 245 30" fill="none" xmlns="http://www.w3.org/2000/svg">
<path fill-rule="evenodd" clip-rule="evenodd" d="M112.835 4.26162C111.949 4.312 111.064 4.3663 110.178 4.41668C98.4446 4.88554 86.7079 5.44738 74.9591 6.14099C67.5798 6.57499 62.4412 6.90435 58.2145 7.2066C39.1007 8.2257 20.0334 9.69818 1.09822 11.7751C0.750251 11.8139 0.573929 11.8836 0.551842 11.8952C0.0512025 12.1316 0.00819206 12.5385 0.000829723 12.7361C-0.00885757 13.0151 0.0605064 13.3831 0.517359 13.6273C0.571995 13.6544 0.693675 13.7203 0.902533 13.7358C0.988169 13.7435 2.02818 13.67 3.99509 13.5189C3.89046 13.7358 3.88582 13.945 3.92534 14.1349C3.96487 14.3209 4.13809 14.8634 4.86734 14.9215C5.45788 14.968 9.54902 14.379 11.1377 14.224C16.6529 13.6893 22.1607 13.0732 27.6798 12.5772C36.3142 11.7983 44.9549 11.0931 53.5967 10.4073C59.4882 9.93454 65.38 9.4734 71.2745 9.02391C78.6771 8.55892 86.0829 8.12878 93.4909 7.74129C114.776 7.16393 136.062 7.03216 157.226 7.13678C182.448 7.26465 207.802 7.05928 232.861 10.0391L231.613 10.0856L231.167 10.1011C220.263 9.10142 207.147 9.87638 197.909 9.78338C158.133 9.38814 118.989 10.6785 79.3653 13.8482C63.8134 15.0959 48.2699 16.8358 32.8008 18.8313C27.4508 19.525 13.5584 21.1562 11.667 21.7646C11.0211 21.97 10.8471 22.4156 10.8095 22.5706C10.7529 22.8031 10.7774 23.0278 10.8878 23.2487C10.9595 23.3921 11.0811 23.5588 11.3191 23.6866C11.4097 23.737 11.5741 23.8028 11.831 23.8377C12.0658 23.8687 12.4835 23.8881 13.1105 23.8881C63.6479 23.6828 113.993 17.7193 164.445 15.1618C183.064 14.2163 201.683 13.3212 220.306 12.4494C223.952 12.2789 227.603 12.1665 231.253 12.0347C232.02 12.1083 232.772 12.1897 233.512 12.2827L225.126 12.7245C208.414 13.6041 191.748 14.8518 175.066 16.2235C136.434 19.3971 97.9773 24.6786 59.3115 27.3251C58.7783 27.3639 58.3749 27.825 58.4113 28.3597C58.4477 28.8944 58.9108 29.2975 59.444 29.2587C98.1184 26.6121 136.585 21.3268 175.225 18.1532C191.887 16.7854 208.534 15.5377 225.227 14.6581C231.164 14.3481 239.475 13.9101 241.06 13.821C241.25 13.8094 241.359 13.8017 241.378 13.7978C241.835 13.7475 241.998 13.4762 242.021 13.4452C242.257 13.1545 242.277 12.8562 242.203 12.5811C242.157 12.4106 242.037 12.0541 241.545 11.9068C241.413 11.8681 241.281 11.8293 241.145 11.7944C242.602 11.7712 243.819 11.7402 244.156 11.6628C244.869 11.4961 244.982 10.9458 244.997 10.7443C245.013 10.5312 244.97 10.3026 244.799 10.0779C244.73 9.98488 244.613 9.86085 244.404 9.76011C244.3 9.71361 244.063 9.63611 243.649 9.57024C230.311 7.46616 216.873 6.40837 203.396 5.85813L211.754 5.92398C211.87 5.92398 211.925 5.9201 211.936 5.9201C212.428 5.87747 212.599 5.57522 212.638 5.52097C212.824 5.26135 212.858 4.99397 212.793 4.73047C212.789 4.7111 212.68 4.19571 212.161 4.03297L217.582 3.96325C218.682 3.95162 219.229 3.93618 219.326 3.92843C219.802 3.88193 219.973 3.60286 220.008 3.55636C220.236 3.26962 220.26 2.97125 220.174 2.68063C220.139 2.5605 220.019 2.12652 219.434 2.01027C219.403 2.00252 219.252 1.98321 218.989 1.97934C216.582 1.93671 199.215 1.97152 192.535 2.01027C181.805 2.07227 171.071 2.1382 160.342 2.35519C152.542 2.51019 144.749 2.75425 136.957 3.072C115.026 2.54501 93.1182 1.64993 71.4709 0.00309336C70.9378 -0.0395307 70.472 0.363479 70.4313 0.894343C70.391 1.42908 70.7909 1.89405 71.3237 1.93667C85.0765 2.97903 98.9344 3.72688 112.835 4.26162ZM195.29 11.6976C156.467 11.3837 118.223 12.6818 79.5199 15.7817C63.999 17.0217 48.4869 18.7616 33.0488 20.7533C31.0602 21.0129 27.8712 21.3965 24.574 21.8073C71.2284 20.8618 117.742 15.5881 164.348 13.2244C174.66 12.7012 184.975 12.1936 195.29 11.6976Z" fill="#FFF500"/>
</svg>
